<?xml version="1.0" standalone="no"?>
<!DOCTYPE svg PUBLIC "-//W3C//DTD SVG 20010904//EN"
 "http://www.w3.org/TR/2001/REC-SVG-20010904/DTD/svg10.dtd">
<svg version="1.0" xmlns="http://www.w3.org/2000/svg"
 width="3000.000000pt" height="2000.000000pt" viewBox="0 0 3000.000000 2000.000000"
 preserveAspectRatio="xMidYMid meet">

<g transform="translate(0.000000,2000.000000) scale(0.100000,-0.100000)"
fill="#000000" stroke="none">
<path d="M10 10000 l0 -10000 14995 0 14995 0 0 10000 0 10000 -14995 0
-14995 0 0 -10000z m13671 7817 c52 -14 128 -39 167 -56 58 -24 361 -186 692
-369 25 -13 92 -50 150 -80 58 -30 121 -65 141 -78 19 -12 78 -43 130 -69 206
-103 371 -249 489 -432 19 -28 38 -49 43 -46 6 3 7 2 4 -4 -3 -5 10 -43 30
-84 44 -93 96 -248 120 -359 28 -133 25 -487 -5 -630 -69 -316 -224 -630 -421
-850 -33 -38 -61 -71 -61 -74 0 -3 53 -6 118 -6 223 0 695 -42 944 -83 76 -13
77 -13 73 7 -29 128 -150 660 -165 721 -10 44 -28 121 -39 170 -11 50 -41 180
-66 290 -26 110 -57 250 -70 310 -13 61 -31 139 -41 175 -19 75 -19 78 -9 105
l8 20 -17 -20 c-13 -16 -15 -17 -10 -2 3 9 2 17 -3 17 -6 0 -14 10 -20 23 -6
12 -30 43 -53 70 -23 26 -37 47 -31 47 6 0 11 5 11 11 0 6 -8 8 -17 5 -10 -3
-25 -1 -33 5 -12 9 -12 10 4 5 10 -4 25 -1 33 5 11 10 11 15 -4 32 -17 19 -17
20 2 9 32 -18 85 -69 78 -75 -3 -4 -17 5 -30 19 -13 15 -27 24 -30 20 -3 -3 5
-15 18 -26 20 -16 22 -21 9 -29 -8 -6 -11 -13 -7 -18 5 -4 12 -1 17 7 6 8 10
11 10 6 0 -5 7 -3 15 4 18 15 20 0 3 -20 -10 -11 -9 -11 6 0 15 12 20 12 24 2
2 -7 10 -19 18 -27 23 -23 62 -108 74 -160 6 -28 17 -77 25 -110 8 -33 37
-159 65 -280 28 -121 57 -247 65 -280 20 -81 169 -728 206 -894 17 -74 34
-144 39 -156 6 -17 27 -24 126 -43 223 -44 592 -154 839 -250 l100 -39 7 -84
c15 -175 61 -336 145 -504 140 -279 363 -483 650 -595 272 -107 531 -125 800
-57 l92 23 64 -86 c129 -169 220 -311 325 -510 166 -312 255 -551 362 -966 94
-367 130 -622 137 -979 4 -227 4 -230 27 -250 13 -11 48 -40 77 -65 29 -25
132 -112 229 -195 96 -82 197 -168 225 -190 27 -22 56 -47 65 -55 9 -8 43 -37
75 -65 33 -27 78 -66 100 -86 46 -42 117 -77 108 -53 -3 8 0 14 6 14 6 0 11
-5 11 -12 0 -6 2 -9 5 -6 3 3 3 13 -1 22 -5 13 -9 14 -20 5 -23 -19 -30 -1 -8
19 10 10 30 34 44 52 38 51 54 64 58 51 2 -6 8 -8 14 -5 7 4 6 9 -2 14 -9 5 2
25 35 66 27 33 51 61 55 64 3 3 13 14 21 26 44 64 92 112 107 107 14 -4 14 -3
3 5 -12 8 -5 22 38 71 29 34 57 58 62 55 5 -3 6 3 2 12 -5 14 -3 16 11 11 10
-4 15 -3 11 3 -6 10 52 100 64 100 4 0 27 27 51 60 25 33 48 60 53 60 15 0 6
-39 -10 -49 -10 -6 -13 -11 -7 -11 19 0 37 29 31 51 -4 16 9 40 50 93 57 73
81 99 70 81 -3 -5 6 -11 19 -11 22 -2 23 -1 8 11 -16 11 -14 16 17 56 19 24
36 46 39 49 3 3 27 31 53 63 27 31 53 54 59 51 7 -4 8 -2 4 5 -4 6 -2 19 5 27
10 12 14 12 21 2 7 -9 8 -7 4 7 -7 25 5 45 30 49 10 2 18 10 17 17 -2 8 12 31
30 51 51 58 104 121 128 151 12 15 24 25 27 22 4 -3 0 -10 -7 -15 -8 -4 -15
-21 -16 -37 -1 -22 3 -29 16 -29 17 0 17 2 2 18 -9 10 -13 21 -9 25 4 4 11 1
16 -7 6 -9 8 0 5 25 -2 33 3 46 29 75 17 20 44 51 60 70 18 22 30 30 33 22 3
-8 10 -5 22 10 18 23 25 61 9 52 -5 -3 -6 -10 -2 -15 8 -13 -15 -40 -28 -33
-5 3 -2 11 7 18 15 10 -14 49 -231 311 -136 165 -302 366 -368 446 -110 132
-223 269 -549 663 -60 72 -155 187 -212 256 -57 69 -165 199 -240 290 -76 91
-167 201 -204 246 -36 45 -160 195 -275 333 l-209 252 13 75 c18 103 8 343
-19 449 -61 246 -169 443 -336 610 -114 115 -202 180 -335 249 -158 82 -304
122 -484 134 l-100 7 -149 180 c-274 331 -317 385 -317 392 0 5 8 18 18 30 18
23 26 25 752 177 938 196 1362 285 2033 427 131 28 240 49 241 47 20 -22 322
-386 501 -603 127 -153 268 -324 314 -379 46 -56 110 -132 142 -171 184 -224
340 -412 409 -495 43 -52 118 -142 165 -200 48 -58 97 -116 108 -130 12 -14
94 -113 182 -220 88 -107 170 -206 181 -220 28 -32 448 -539 609 -735 68 -82
137 -165 155 -184 l31 -34 15 22 c9 12 20 19 25 16 5 -3 7 0 4 7 -5 15 32 64
42 55 3 -4 -2 -18 -11 -32 -16 -25 -16 -25 1 -14 24 14 47 60 27 52 -22 -8
-16 6 23 53 27 34 39 42 46 32 6 -9 7 -8 3 5 -8 26 36 78 55 66 23 -14 34 -10
13 5 -19 14 -19 15 5 40 13 14 28 23 34 19 6 -3 7 -1 3 5 -7 12 64 106 73 96
3 -3 -1 -10 -9 -15 -13 -9 -13 -10 0 -6 8 2 14 13 13 24 -1 12 18 42 51 78 30
31 60 68 67 81 7 13 16 24 20 24 15 0 21 -22 10 -33 -8 -8 -11 -8 -11 2 0 7
-4 9 -10 6 -6 -4 -5 -11 3 -19 18 -20 42 16 28 42 -8 14 -5 22 10 32 10 8 19
20 19 27 0 18 10 16 26 -4 18 -26 41 -3 25 24 -11 16 -11 16 -6 -4 7 -26 -10
-32 -19 -7 -5 14 40 84 74 114 3 3 36 43 74 90 38 47 71 87 73 90 2 2 8 -1 12
-8 6 -10 11 -10 21 3 11 13 10 15 -4 9 -9 -3 -16 -2 -16 4 0 15 26 33 35 24 5
-4 5 -2 1 5 -4 7 1 21 11 32 10 10 31 37 47 60 16 22 34 37 39 34 6 -3 7 -1 4
4 -8 13 17 36 27 26 4 -4 4 1 0 11 -5 14 -3 17 7 14 8 -3 14 -14 14 -25 0 -12
3 -24 6 -27 4 -4 5 9 3 29 -1 19 2 37 7 41 5 3 7 10 4 15 -3 5 4 19 15 31 12
13 47 55 78 93 31 39 64 78 74 88 10 10 18 23 18 29 0 6 3 9 6 5 3 -3 16 13
28 36 13 24 42 55 67 72 41 28 50 30 139 30 90 0 99 -2 175 -39 101 -49 188
-135 236 -232 30 -60 34 -79 34 -145 0 -64 -4 -81 -25 -111 -49 -69 -194 -227
-203 -221 -6 4 -7 1 -2 -6 7 -12 -32 -58 -46 -54 -4 1 -6 -5 -5 -15 0 -9 -5
-16 -12 -14 -8 1 -11 -2 -7 -8 3 -5 1 -10 -4 -10 -6 0 -10 -6 -9 -12 2 -7 -3
-12 -10 -10 -6 1 -11 -1 -11 -5 3 -20 -2 -26 -12 -13 -8 13 -9 13 -7 -1 3 -14
-72 -118 -122 -169 -8 -8 -31 -36 -50 -60 -56 -72 -63 -79 -72 -74 -4 3 -6 -1
-3 -8 3 -7 -16 -35 -41 -63 -26 -27 -53 -60 -61 -72 -9 -13 -20 -20 -26 -16
-5 3 -7 2 -4 -4 8 -13 -52 -85 -65 -77 -7 4 -8 2 -4 -5 4 -6 0 -19 -9 -28 -9
-9 -41 -47 -72 -84 -55 -69 -70 -83 -59 -53 3 9 2 12 -5 9 -5 -4 -7 -15 -4
-25 3 -10 0 -22 -7 -27 -7 -4 -30 -30 -51 -58 -21 -27 -56 -70 -77 -95 -38
-45 -134 -160 -193 -234 -18 -21 -51 -62 -74 -89 -24 -28 -43 -58 -43 -67 0
-9 26 -47 58 -86 65 -77 355 -426 406 -489 60 -73 387 -467 534 -643 80 -96
163 -197 185 -225 22 -29 44 -54 47 -57 4 -3 56 -66 118 -140 268 -326 394
-468 400 -451 2 6 8 8 13 5 6 -4 6 -10 0 -18 -8 -9 -2 -12 24 -13 19 -1 35 3
35 8 0 5 -5 8 -11 6 -6 -1 -14 4 -16 11 -3 8 6 12 25 12 24 0 31 -5 34 -22 3
-20 8 -23 41 -20 35 3 38 2 32 -16 -5 -17 -1 -21 22 -24 20 -2 27 -8 25 -20
-3 -17 24 -24 66 -19 9 2 12 -4 7 -18 -3 -10 -1 -22 4 -25 6 -4 7 -14 4 -22
-4 -10 -1 -15 8 -14 28 4 38 0 33 -14 -3 -8 3 -16 15 -19 13 -3 21 -13 21 -26
0 -14 6 -21 19 -21 14 0 20 -10 26 -42 6 -31 9 -37 12 -20 3 12 9 22 15 22 5
0 8 -7 5 -15 -4 -8 -2 -17 4 -20 5 -4 7 -11 4 -16 -4 -5 -1 -17 4 -26 6 -11
11 -13 11 -5 0 31 20 -3 21 -36 1 -20 5 -48 9 -62 8 -25 8 -25 9 -2 1 13 6 20
11 17 6 -3 10 -36 11 -73 0 -69 16 -134 19 -82 l2 25 8 -25 c10 -32 12 -323 3
-347 -6 -12 -10 -1 -13 37 -5 49 -7 42 -14 -57 -5 -62 -12 -113 -17 -113 -5 0
-9 10 -10 23 -1 18 -2 17 -10 -8 -5 -16 -10 -43 -11 -58 -1 -15 -8 -32 -17
-37 -9 -5 -16 -14 -17 -22 0 -7 -2 -23 -2 -36 -2 -19 -6 -22 -22 -17 -19 6
-25 -2 -21 -32 1 -7 -8 -13 -19 -13 -11 0 -20 -6 -19 -12 4 -31 -2 -39 -21
-33 -16 5 -20 2 -20 -14 0 -15 -6 -21 -21 -21 -11 0 -17 -4 -14 -10 9 -15 -14
-40 -31 -33 -9 3 -14 -2 -14 -16 0 -21 -12 -25 -65 -22 -17 1 -16 -1 5 -11 23
-10 20 -12 -45 -28 -64 -16 -68 -19 -45 -28 20 -9 2 -11 -85 -12 -60 -1 -104
-4 -97 -7 36 -14 1 -23 -93 -23 -125 0 -143 18 -22 23 52 2 28 4 -68 5 -130 2
-147 4 -126 16 l23 13 -32 7 c-18 3 -45 6 -60 6 -52 0 -81 23 -42 33 9 3 -2 5
-25 6 -36 1 -46 6 -73 41 -21 27 -40 40 -56 40 -13 0 -24 4 -24 9 0 17 -61 71
-80 71 -12 0 -23 14 -34 40 -12 31 -21 40 -40 40 -17 0 -27 9 -37 33 -7 17
-29 57 -49 87 -20 30 -42 70 -49 88 -8 17 -17 32 -22 32 -5 0 -9 10 -9 23 0
12 -7 31 -15 41 -8 11 -15 37 -15 58 0 21 -4 38 -10 38 -5 0 -10 -10 -10 -22
-1 -22 -1 -22 -12 -4 -8 15 -8 21 0 24 16 5 15 27 0 44 -10 9 -12 49 -10 145
3 113 6 132 20 136 9 3 3 5 -14 6 -17 0 -47 3 -65 6 -28 4 -30 3 -14 -5 16 -8
14 -9 -13 -4 -20 3 -39 1 -48 -7 -8 -6 -17 -9 -20 -7 -3 3 -25 0 -49 -7 -24
-8 -46 -11 -49 -8 -3 3 -11 1 -18 -4 -20 -16 -68 -25 -68 -13 0 5 -9 10 -20
10 -22 0 -27 -15 -7 -24 6 -3 -1 -4 -16 -1 -18 4 -26 2 -22 -4 4 -7 -9 -9 -38
-5 -32 5 -47 2 -59 -9 -8 -9 -33 -18 -54 -21 -22 -3 -75 -13 -119 -22 -44 -9
-97 -16 -118 -15 -24 1 -36 -2 -32 -8 7 -13 -38 -25 -89 -24 -27 0 -34 -2 -25
-9 10 -7 8 -8 -8 -5 -13 3 -23 1 -23 -5 0 -7 -18 -8 -47 -4 -115 16 -119 17
-98 7 11 -5 36 -10 55 -12 24 -1 13 -5 -38 -13 -43 -6 -70 -15 -65 -20 4 -5
-2 -7 -15 -3 -13 3 -42 -1 -64 -9 -23 -8 -43 -12 -46 -9 -3 3 1 5 9 6 8 1 3 4
-11 9 -20 6 -13 9 38 15 34 4 62 12 62 17 0 5 -12 7 -27 4 -200 -39 -346 -70
-383 -81 -43 -12 -44 -13 -12 -14 18 -1 40 3 50 8 31 17 108 30 148 26 30 -4
33 -3 14 3 -22 8 -18 10 28 16 36 6 58 4 65 -3 8 -8 5 -11 -11 -11 -12 0 -30
-4 -40 -9 -24 -12 -122 -34 -128 -28 -3 2 10 7 27 11 18 3 30 9 27 11 -3 3
-26 0 -52 -7 -37 -10 -43 -14 -29 -20 14 -6 12 -7 -6 -4 -13 3 -40 -2 -59 -10
-41 -17 -45 -17 -37 -4 3 6 -1 10 -10 10 -10 0 -13 -5 -9 -12 4 -7 3 -8 -4 -4
-7 4 -12 2 -12 -4 0 -7 -7 -9 -16 -6 -9 4 -22 2 -29 -4 -7 -6 -31 -12 -53 -13
-23 0 -38 -5 -36 -9 3 -4 1 -8 -5 -8 -5 0 -11 5 -13 11 -3 8 -10 6 -20 -5 -9
-9 -21 -16 -26 -16 -6 0 -50 48 -98 108 -49 59 -143 172 -209 252 -265 317
-337 406 -342 418 -3 7 3 22 13 34 19 21 19 21 -3 7 -12 -7 -24 -22 -27 -32
-3 -12 -9 -16 -17 -11 -8 4 -10 3 -5 -4 4 -6 -3 -26 -16 -44 -28 -40 -39 -49
-52 -41 -5 4 -6 1 -2 -6 10 -15 -23 -53 -37 -44 -6 4 -7 1 -2 -7 5 -8 2 -17
-6 -24 -8 -6 -42 -45 -74 -86 -33 -41 -74 -91 -92 -110 -17 -19 -42 -48 -54
-65 -13 -16 -26 -32 -29 -35 -3 -3 -21 -25 -40 -50 -19 -25 -45 -56 -57 -70
-13 -14 -23 -29 -23 -33 0 -5 -7 -6 -16 -3 -9 3 -12 2 -9 -4 4 -6 -15 -36 -42
-67 -26 -32 -55 -66 -63 -77 -8 -11 -31 -38 -50 -60 -20 -23 -61 -72 -92 -111
-31 -38 -64 -79 -74 -90 -11 -11 -31 -36 -46 -57 -15 -20 -33 -42 -40 -50 -7
-7 -33 -38 -58 -68 -153 -187 -214 -255 -223 -252 -5 2 -7 -4 -4 -12 4 -9 -2
-21 -12 -28 -10 -7 -32 -33 -50 -58 l-32 -45 23 -18 c101 -80 157 -131 151
-140 -3 -6 -1 -7 5 -3 13 8 54 -29 44 -39 -4 -3 1 -3 10 0 10 4 23 -3 37 -21
11 -15 21 -24 21 -20 0 4 10 -4 23 -17 12 -12 37 -33 55 -46 17 -12 32 -29 32
-37 0 -8 5 -13 12 -12 6 2 17 -7 23 -20 17 -31 27 -40 20 -17 -6 17 -5 18 7 5
7 -9 35 -33 62 -55 27 -22 59 -49 71 -60 18 -18 41 -37 140 -120 17 -14 34
-25 38 -25 5 0 5 -4 2 -10 -3 -5 0 -10 8 -10 7 0 24 -11 36 -24 l22 -23 -33 3
c-18 1 -53 7 -78 12 -126 28 -406 23 -650 -13 -467 -68 -981 -223 -1615 -485
-80 -33 -103 -39 -120 -30 -18 10 -18 10 5 6 34 -7 49 4 39 29 -7 19 -8 18 -8
-3 -2 -41 -26 -18 -29 26 -2 23 -7 42 -13 42 -5 0 -9 24 -9 54 0 34 -5 60 -14
69 -14 13 -46 191 -46 251 0 14 -5 26 -11 26 -7 0 -10 20 -7 58 3 49 1 57 -14
56 -21 -2 -26 42 -6 48 8 3 4 15 -11 37 -18 25 -21 35 -11 41 9 6 9 12 -1 31
-7 13 -16 49 -20 79 -16 132 -23 162 -35 167 -17 6 -19 40 -3 45 7 2 3 18 -11
41 -12 20 -17 37 -11 37 16 0 14 31 -3 44 -17 13 -31 116 -17 116 6 0 8 7 5
15 -4 8 -10 12 -15 10 -11 -7 -23 40 -14 55 4 6 0 19 -9 29 -12 13 -17 40 -18
95 -1 49 -6 81 -15 87 -7 7 -10 21 -7 34 3 13 -1 28 -9 37 -9 8 -20 48 -26 89
-14 101 -27 169 -40 202 -6 16 -11 43 -11 60 0 18 -7 54 -15 81 -8 27 -15 66
-15 87 0 21 -5 41 -11 45 -6 3 -9 15 -6 25 3 11 1 17 -4 13 -5 -3 -9 10 -9 28
-1 18 -7 65 -15 103 -9 39 -22 104 -30 145 -8 41 -20 95 -25 120 -6 25 -17 79
-25 120 -37 186 -43 211 -47 215 -2 2 -18 -4 -35 -15 -22 -13 -34 -29 -37 -52
-5 -27 -88 -626 -126 -903 -32 -235 -166 -1192 -266 -1900 -35 -253 -67 -468
-70 -478 -3 -9 -35 -45 -71 -80 -36 -34 -79 -75 -95 -92 -17 -16 -34 -29 -39
-27 -5 1 -9 -5 -9 -13 0 -8 -3 -15 -7 -15 -5 0 -27 -17 -49 -38 -64 -58 -92
-81 -190 -157 -52 -41 -89 -78 -88 -86 2 -8 10 -37 18 -66 23 -81 30 -125 27
-158 -1 -17 -3 -18 -11 -5 -8 12 -10 10 -10 -8 0 -15 4 -21 12 -16 8 5 9 -5 5
-37 -3 -24 -3 -36 1 -25 5 10 8 -28 9 -85 0 -102 -7 -101 -22 0 -3 19 -12 54
-20 79 -9 24 -13 53 -9 64 4 13 2 18 -4 14 -12 -7 -26 59 -16 76 4 6 3 8 -3 5
-5 -4 -14 20 -21 55 -6 33 -14 63 -16 66 -3 3 -14 -1 -24 -9 -11 -8 -48 -34
-83 -58 -35 -25 -66 -47 -69 -50 -7 -8 -112 -80 -174 -118 -28 -17 -55 -36
-61 -40 -38 -32 -148 -92 -157 -87 -6 4 -8 3 -5 -3 4 -6 -17 -23 -46 -38 -29
-16 -58 -35 -65 -42 -7 -7 -17 -13 -22 -13 -5 0 -33 -14 -62 -31 -29 -18 -78
-45 -108 -62 -30 -17 -67 -39 -82 -49 -16 -11 -32 -16 -38 -13 -5 3 -7 0 -5
-7 3 -7 15 -20 28 -27 12 -8 74 -50 137 -95 500 -356 1134 -801 1159 -815 14
-8 60 -40 101 -71 41 -31 138 -101 215 -156 77 -54 185 -130 240 -169 55 -39
173 -123 263 -186 89 -63 183 -129 210 -147 26 -19 106 -75 177 -125 125 -87
327 -230 725 -512 102 -72 265 -187 364 -255 106 -73 186 -136 197 -154 26
-43 25 -146 -2 -206 -50 -111 -167 -178 -265 -151 -40 11 -114 71 -114 92 0 6
-8 18 -17 25 -13 10 -13 12 -3 9 13 -4 15 7 14 69 -1 71 -3 75 -35 105 -19 17
-40 31 -46 31 -7 0 -13 4 -13 9 0 5 -11 12 -25 15 -14 4 -25 11 -25 16 0 5
-19 19 -41 31 -23 11 -44 29 -46 40 -3 11 -11 18 -19 15 -7 -3 -24 4 -38 15
-14 11 -26 17 -26 14 0 -4 -16 9 -36 29 -20 20 -40 36 -46 36 -5 0 -24 15 -41
34 -18 18 -42 36 -54 40 -12 4 -52 29 -89 56 -36 26 -72 46 -78 44 -6 -2 -16
6 -21 18 -6 12 -26 32 -45 45 -19 12 -47 31 -62 42 -14 12 -33 21 -41 21 -9 0
-40 24 -69 54 -33 33 -67 56 -87 61 -17 4 -37 16 -44 27 -7 11 -33 31 -59 44
-27 13 -48 31 -48 39 0 8 -4 15 -9 15 -5 0 -16 6 -23 13 -15 14 -185 117 -194
117 -3 0 -15 12 -26 26 -12 14 -30 30 -42 35 -36 17 -68 37 -75 47 -3 5 -25
21 -48 36 -24 14 -43 30 -43 35 0 5 -10 7 -21 4 -16 -4 -20 -2 -17 8 4 12 -30
49 -46 49 -11 0 -91 61 -99 75 -4 8 -42 32 -85 53 -42 21 -91 53 -109 70 -17
18 -38 32 -46 32 -7 0 -20 11 -27 25 -7 14 -22 25 -32 25 -10 0 -18 3 -18 8 0
4 -13 13 -29 20 -16 7 -44 26 -63 42 -18 16 -39 30 -46 30 -7 0 -16 10 -21 23
-5 14 -32 33 -70 51 -33 17 -61 36 -61 43 0 7 -11 13 -23 13 -13 0 -32 9 -42
20 -10 11 -23 20 -28 20 -5 0 -23 16 -40 35 -16 19 -35 35 -41 35 -6 0 -31 16
-56 36 -25 20 -64 47 -87 61 -24 14 -43 31 -43 38 0 8 -16 19 -35 26 -19 7
-35 17 -35 21 0 4 -6 8 -14 8 -7 0 -19 7 -27 16 -7 9 -32 25 -56 36 -24 11
-43 26 -43 34 0 8 -6 14 -14 14 -7 0 -25 9 -40 21 -14 11 -26 17 -26 12 0 -4
-11 4 -24 20 -13 15 -27 27 -32 27 -16 0 -84 53 -84 65 0 16 -28 27 -43 18 -7
-3 -9 -2 -4 2 4 5 -12 20 -35 33 -24 14 -59 39 -78 55 -20 18 -36 25 -38 18
-7 -20 -22 -12 -22 13 0 32 -24 50 -57 42 -21 -5 -24 -4 -13 4 12 8 11 10 -7
10 -13 0 -23 4 -23 9 0 5 -9 13 -20 16 -11 3 -20 13 -20 21 0 8 -6 14 -13 14
-7 0 -35 21 -63 46 -27 26 -68 56 -92 66 -24 11 -46 26 -49 34 -7 19 -81 57
-98 50 -8 -3 -17 4 -21 16 -7 25 -48 65 -74 73 -10 3 -21 12 -24 20 -3 8 -12
15 -20 15 -18 0 -76 32 -76 43 0 4 -5 7 -11 7 -6 0 -20 11 -30 24 -11 14 -28
28 -39 31 -11 4 -34 19 -51 35 -17 15 -52 38 -76 51 -25 13 -48 29 -50 36 -3
7 -14 13 -24 13 -10 0 -24 9 -31 20 -7 11 -18 20 -25 20 -7 0 -13 7 -13 15 0
9 -11 20 -25 25 -14 5 -25 15 -25 21 0 7 -10 9 -24 7 -17 -4 -28 3 -42 24 -18
26 -53 51 -38 27 4 -8 0 -7 -15 0 -11 7 -21 16 -21 21 0 5 -9 12 -21 15 -12 4
-37 22 -57 41 -20 19 -40 34 -44 34 -4 0 -22 16 -39 35 -18 19 -36 35 -41 35
-24 0 -88 37 -97 57 -6 13 -23 28 -38 34 -14 5 -35 19 -45 31 -10 12 -18 17
-18 13 0 -5 -8 0 -19 11 -10 11 -32 26 -49 33 -16 7 -32 21 -35 32 -6 21 -26
26 -28 7 -1 -7 -5 1 -9 17 l-8 30 -1 -27 c0 -16 -6 -28 -12 -28 -5 0 -7 4 -4
10 3 5 1 20 -6 32 -12 22 -12 22 -20 3 -11 -30 -10 -37 4 -29 10 6 10 4 0 -7
-16 -16 -17 -93 -2 -121 9 -17 13 -18 21 -7 7 10 8 8 4 -7 -7 -23 9 -40 85
-93 41 -29 50 -31 70 -21 23 11 24 11 4 -6 -14 -11 -16 -18 -8 -21 7 -2 29
-16 50 -30 23 -15 39 -21 41 -14 2 6 8 8 14 5 7 -4 6 -9 -2 -14 -9 -5 1 -18
31 -39 24 -16 62 -44 85 -61 23 -16 46 -30 52 -30 6 0 12 -3 14 -8 5 -13 85
-72 97 -72 6 0 11 -4 11 -8 0 -4 15 -16 33 -27 17 -10 41 -27 52 -37 10 -10
25 -16 33 -13 7 2 10 0 7 -5 -6 -9 4 -17 136 -104 41 -27 76 -52 79 -55 7 -8
108 -82 143 -105 28 -17 29 -17 43 1 14 17 14 16 4 -4 -9 -20 -6 -25 32 -50
24 -15 45 -30 48 -33 3 -3 24 -21 48 -39 24 -19 40 -37 35 -40 -4 -4 -46 -22
-93 -39 -47 -18 -110 -45 -140 -59 -86 -40 -211 -84 -221 -77 -5 3 -9 1 -9 -5
0 -6 -19 -15 -42 -21 -24 -7 -110 -34 -192 -61 -83 -27 -177 -56 -210 -65 -34
-8 -77 -21 -97 -29 -20 -8 -39 -11 -43 -8 -3 3 -11 1 -18 -5 -11 -9 -32 -15
-123 -38 -14 -4 -16 -3 -7 4 11 7 11 10 -3 15 -9 4 -14 3 -11 -2 3 -5 0 -13
-7 -19 -11 -9 -90 -29 -142 -37 -11 -2 -47 -10 -80 -19 -33 -8 -72 -13 -85
-10 -20 5 -22 3 -10 -5 12 -9 11 -11 -8 -11 -13 0 -55 -7 -95 -15 -40 -8 -88
-17 -107 -19 -19 -3 -84 -14 -144 -25 -60 -11 -113 -18 -118 -15 -5 3 -14 1
-21 -4 -10 -8 -96 -20 -272 -37 -27 -3 -90 -10 -140 -15 -49 -6 -99 -10 -110
-9 -11 1 -22 0 -25 -1 -24 -9 -92 -11 -415 -16 -203 -3 -437 -1 -520 4 -303
20 -339 23 -404 33 -99 15 -143 20 -175 20 -15 0 -41 6 -57 14 -15 8 -34 15
-41 14 -7 0 -4 -4 7 -9 29 -13 -50 -2 -165 22 -52 11 -110 23 -129 25 -22 4
-29 8 -20 14 7 4 -6 5 -29 2 -29 -4 -42 -2 -42 6 0 7 -4 10 -9 6 -6 -3 -28 -2
-51 1 -23 4 -37 10 -31 13 5 4 -8 7 -30 7 -21 1 -45 6 -52 13 -8 6 -17 8 -20
4 -4 -3 -13 0 -21 6 -8 7 -21 9 -27 5 -8 -5 -9 -3 -4 6 6 10 4 12 -7 8 -23 -9
-162 23 -146 34 9 6 6 7 -9 3 -12 -3 -47 4 -80 15 -32 12 -74 26 -93 32 -31 9
-33 12 -15 19 14 6 10 7 -14 3 -25 -5 -32 -3 -26 6 6 9 4 11 -4 5 -13 -7 -203
63 -209 78 -2 4 -10 7 -17 7 -8 0 -29 6 -47 14 -18 8 -69 29 -113 46 -44 17
-101 42 -126 56 -63 33 -81 31 -104 -11 -10 -20 -44 -69 -74 -110 -31 -41 -69
-92 -85 -114 -16 -22 -33 -38 -38 -35 -5 3 -7 1 -6 -4 9 -29 -354 -392 -391
-392 -6 0 -11 -5 -11 -11 0 -6 -7 -8 -16 -5 -8 3 -13 2 -10 -3 8 -12 -21 -34
-33 -26 -7 4 -8 -1 -4 -12 6 -16 5 -17 -12 -3 -17 14 -18 13 -12 -2 4 -12 -4
-23 -31 -40 -20 -12 -39 -26 -40 -30 -2 -5 -8 -6 -13 -2 -5 3 -9 0 -9 -6 0 -7
-7 -7 -22 1 -20 11 -21 10 -10 -3 10 -13 9 -18 -5 -29 -11 -9 -14 -10 -9 -2 5
9 2 11 -8 7 -9 -3 -14 -10 -11 -14 7 -11 -24 -22 -37 -13 -7 3 -8 1 -4 -6 5
-7 -4 -15 -23 -22 -17 -6 -31 -14 -31 -19 0 -9 -39 -23 -59 -20 -7 1 -10 -3
-7 -9 3 -5 -20 -21 -51 -36 -32 -15 -80 -37 -107 -50 -44 -20 -51 -21 -78 -8
-16 8 -32 12 -35 9 -4 -3 0 -6 8 -6 12 0 11 -2 -1 -10 -11 -8 -7 -9 15 -4 29
6 30 6 8 -10 -21 -15 -49 -24 -86 -25 -10 -1 -16 -5 -13 -10 4 -5 -8 -13 -26
-16 -18 -4 -44 -12 -58 -18 -14 -6 -27 -11 -30 -12 -3 -1 -13 -5 -24 -10 -12
-5 -21 -3 -27 6 -7 11 -9 11 -9 -3 0 -10 -7 -18 -15 -18 -8 0 -34 -6 -57 -14
-70 -22 -110 -28 -103 -13 4 6 0 4 -8 -5 -16 -20 -60 -25 -132 -15 l-50 6 40
-14 c30 -11 33 -14 12 -11 -15 2 -30 0 -32 -4 -3 -4 -35 -11 -72 -14 -38 -4
-90 -9 -118 -11 -35 -4 -44 -2 -30 4 14 7 16 10 4 10 -8 1 -20 -4 -26 -10 -16
-16 -268 -25 -277 -10 -5 8 -12 9 -19 3 -15 -12 -218 11 -392 44 -132 25 -175
36 -180 45 -3 4 -13 5 -22 2 -12 -5 -14 -3 -8 7 5 8 4 11 -2 7 -20 -13 -227
59 -217 75 3 4 -2 5 -10 2 -8 -3 -25 0 -38 7 -13 7 -25 14 -28 14 -22 4 -50
18 -50 26 0 5 -8 9 -17 9 -16 0 -16 2 -3 10 11 8 8 9 -12 4 -21 -5 -33 0 -53
21 -14 16 -25 23 -25 16 0 -8 -9 -7 -29 5 -17 10 -28 21 -26 25 3 4 -3 6 -13
5 -9 0 -16 5 -14 12 1 8 -2 11 -7 8 -12 -8 -118 47 -152 77 -27 25 -185 151
-229 183 -27 20 -104 98 -188 190 -57 64 -65 76 -67 93 0 9 -4 21 -7 26 -3 6
-5 24 -3 40 1 22 -3 31 -15 31 -8 0 -16 -8 -16 -17 0 -10 6 -15 15 -11 8 3 12
0 9 -8 -2 -8 -9 -15 -16 -18 -13 -4 -104 116 -97 128 3 4 -2 14 -11 21 -20 17
-49 71 -46 87 2 7 -3 11 -10 10 -7 -2 -12 5 -12 14 1 10 -2 16 -6 13 -5 -3
-12 5 -16 17 -3 12 -20 44 -36 70 -17 27 -27 55 -24 64 4 10 2 13 -6 8 -8 -5
-9 -2 -5 10 4 9 3 15 -2 11 -5 -3 -17 15 -26 39 -13 33 -14 49 -6 64 6 11 11
24 11 29 -1 4 -6 -2 -13 -15 l-13 -23 -11 24 c-21 46 -74 259 -69 273 3 8 2
13 -3 10 -14 -9 -24 64 -10 80 10 12 9 13 -5 8 -9 -3 -16 -2 -16 2 0 5 -4 36
-10 69 -27 168 -29 462 -5 644 9 69 19 129 22 134 3 5 7 17 8 26 0 9 5 38 10
66 6 39 10 46 16 30 5 -12 6 -2 2 24 -5 35 -3 42 7 36 8 -5 11 -4 7 2 -9 14
14 94 25 87 5 -3 6 6 3 23 -5 23 -4 25 5 13 10 -12 11 -11 7 8 -7 30 12 84 26
75 6 -3 7 -1 3 6 -11 18 2 63 16 55 6 -4 8 -3 4 4 -9 14 12 65 24 57 5 -3 7 0
4 8 -5 13 52 136 69 148 5 3 8 10 8 15 -2 23 11 46 21 36 6 -6 6 -18 -1 -33
-9 -20 -9 -21 1 -7 11 15 13 15 25 0 8 -9 5 1 -5 23 l-20 40 32 46 c19 28 37
44 46 42 12 -4 13 -3 1 5 -12 8 -10 16 8 46 13 20 25 36 27 36 3 0 2 -5 -2
-12 -4 -7 -3 -8 5 -4 6 4 8 12 5 18 -4 6 -3 13 2 17 5 3 36 46 69 95 33 48 65
91 72 93 7 3 13 9 13 13 0 19 162 180 173 173 6 -3 7 -1 3 6 -11 18 142 160
164 153 8 -3 10 0 5 8 -6 10 -4 12 8 7 10 -4 15 -1 12 6 -3 11 121 109 230
179 244 158 560 295 853 368 107 27 191 42 370 66 l42 5 0 107 c0 59 2 148 5
197 3 50 5 115 5 145 0 37 2 50 9 41 6 -9 8 4 6 39 -5 59 24 290 36 290 4 0 5
8 3 18 -6 21 41 211 48 192 2 -7 4 3 4 22 0 42 22 116 41 139 7 9 10 18 7 22
-9 8 6 68 16 62 4 -3 6 5 2 17 -4 16 -2 19 8 13 9 -5 11 -4 6 4 -9 15 20 105
39 121 8 7 12 17 9 22 -4 5 -2 20 4 31 5 12 23 54 38 92 16 39 32 72 36 73 5
2 8 13 8 23 0 13 4 18 12 13 6 -4 8 -3 5 4 -9 14 3 43 14 36 5 -3 9 4 9 15 0
30 11 52 23 44 6 -3 7 -1 3 6 -10 15 3 53 15 46 5 -4 9 3 9 14 0 29 11 52 22
45 5 -3 8 2 6 12 -2 12 2 18 10 16 8 -1 11 2 7 8 -5 8 61 145 80 168 3 4 212
37 292 47 23 3 73 12 110 20 37 9 83 18 102 20 42 7 53 13 45 27 -4 7 -2 8 5
4 6 -4 9 -11 6 -16 -5 -9 12 -5 232 51 84 22 155 39 158 39 4 0 3 5 -1 12 -4
6 -3 8 4 4 16 -10 104 16 89 27 -7 5 -4 6 10 2 12 -3 32 -1 44 6 l22 12 -24
14 -24 14 24 -7 c18 -5 22 -3 15 7 -6 11 -3 10 12 -1 30 -22 30 -24 9 -16 -14
5 -17 4 -10 -3 13 -13 87 8 78 22 -3 6 -2 7 4 4 12 -8 84 14 78 23 -3 4 1 7 8
6 6 0 49 14 95 33 55 23 78 38 70 43 -8 5 -3 6 12 3 16 -3 35 2 55 16 28 19
29 20 5 14 -19 -5 -21 -4 -10 4 8 6 23 8 32 5 11 -3 53 16 108 50 49 31 93 56
97 56 5 1 21 11 37 24 19 16 26 28 20 37 -6 11 -5 12 7 2 12 -10 24 -4 63 31
26 24 44 46 39 48 -4 3 -3 3 4 2 16 -4 84 68 79 83 -3 7 0 10 7 8 17 -7 86
104 104 166 10 32 14 78 11 122 -4 88 -33 149 -103 222 -47 49 -155 134 -172
136 -5 1 -19 9 -33 19 -46 31 -230 109 -297 125 -10 3 -49 14 -87 25 -38 11
-72 17 -77 15 -4 -3 -9 -1 -11 4 -1 5 -41 16 -88 25 -47 8 -121 22 -165 31
-44 9 -112 17 -151 18 -40 1 -70 5 -67 10 2 4 -24 8 -59 8 -35 1 -79 4 -98 7
-19 3 -190 6 -380 6 -415 1 -670 -18 -1000 -75 -63 -11 -133 -22 -155 -25 -22
-2 -56 -9 -75 -14 -19 -5 -120 -30 -225 -56 -176 -43 -399 -109 -470 -139 -16
-7 -41 -16 -55 -20 -14 -3 -38 -12 -55 -20 -16 -7 -56 -21 -87 -30 -32 -9 -58
-21 -58 -26 0 -5 -9 -9 -19 -9 -11 0 -23 -4 -26 -10 -10 -15 -35 -12 -35 5 0
8 7 15 15 15 8 0 15 7 15 15 0 8 5 15 10 15 6 0 10 18 10 40 0 29 4 40 15 40
11 0 15 11 15 35 0 22 6 38 15 41 10 4 15 20 15 45 0 21 5 39 10 39 6 0 10 18
10 40 0 29 4 40 15 40 9 0 15 9 15 24 0 13 7 29 15 36 9 8 15 30 15 56 0 40 2
44 24 44 21 0 24 5 28 50 3 33 13 59 27 73 21 24 29 53 11 42 -21 -13 -9 15
15 33 22 17 25 28 25 81 0 55 3 65 28 86 22 20 24 26 13 34 -13 8 -13 12 -1
26 8 10 24 21 37 26 20 7 23 16 23 59 0 38 4 50 15 50 11 0 15 11 15 39 0 25
5 41 15 45 8 3 15 14 15 24 0 10 6 24 13 31 9 11 10 14 0 18 -15 5 -18 33 -4
33 5 0 20 34 33 77 15 51 29 78 41 81 16 4 31 37 26 58 -4 15 32 124 41 124 4
0 10 9 13 19 3 14 1 18 -9 14 -8 -3 -14 0 -14 7 0 6 9 14 20 17 12 3 24 19 30
42 5 20 19 46 29 58 17 17 18 22 6 27 -19 7 -19 35 0 42 9 4 15 19 15 40 0 19
4 34 10 34 5 0 12 11 16 25 3 14 10 25 16 25 5 0 7 4 4 9 -9 14 4 41 20 41 8
0 14 10 14 23 1 12 7 33 15 47 8 14 14 36 15 51 0 14 5 30 11 36 6 6 14 35 18
64 5 44 10 53 24 51 12 -2 17 4 17 20 0 13 6 35 14 50 8 15 17 40 21 57 4 17
11 31 16 31 5 0 8 3 8 8 -5 33 3 72 15 72 10 0 19 19 26 55 6 30 16 57 21 60
5 4 9 22 9 41 0 19 5 34 10 34 20 0 48 81 44 126 -2 24 1 44 6 44 6 0 10 -6
11 -12 0 -10 2 -10 5 -1 3 7 1 21 -5 31 -8 15 -7 21 4 25 10 4 12 1 8 -11 -3
-11 1 -9 11 5 9 13 16 28 15 35 -4 31 3 50 24 72 13 14 23 38 25 62 2 21 12
50 23 64 10 14 24 36 30 50 11 25 13 34 25 98 3 17 9 32 13 32 4 0 18 32 31
70 13 39 27 70 30 70 3 0 190 -247 415 -549 226 -303 416 -550 423 -550 13 -1
191 39 927 210 237 55 615 142 840 194 226 52 479 110 564 129 85 20 166 36
180 36 21 0 23 2 11 10 -13 8 -12 10 5 11 16 1 17 2 3 6 -23 6 -31 35 -23 82
4 24 2 42 -4 46 -14 8 -15 191 -2 200 5 3 7 20 4 39 -3 18 1 59 8 92 7 32 12
63 10 68 -3 12 20 108 29 121 3 6 7 20 8 32 1 32 62 205 79 224 7 9 11 18 8
21 -9 8 73 166 133 258 84 129 137 195 242 304 224 231 510 393 795 450 124
24 130 24 305 21 138 -2 181 -7 261 -28z m-7771 -1307 c19 -6 21 -8 6 -9 -36
-2 -5 -16 47 -21 36 -3 52 -9 52 -19 0 -8 13 -16 30 -18 43 -5 56 -11 53 -24
-3 -13 50 -32 64 -23 4 3 8 -4 8 -15 0 -14 6 -21 20 -21 13 0 20 -7 20 -20 0
-13 7 -20 20 -20 13 0 20 -7 20 -20 0 -13 7 -20 19 -20 14 0 21 -10 25 -35 4
-20 11 -33 17 -30 5 4 7 11 4 16 -4 5 -1 9 4 9 6 0 11 -18 11 -40 0 -33 3 -40
20 -40 16 0 20 -7 21 -37 1 -21 5 -49 9 -63 8 -24 8 -24 9 -2 1 12 4 22 9 22
14 0 19 -156 13 -412 -1 -51 -4 -68 -15 -68 -9 0 -17 -15 -21 -40 -4 -23 -12
-40 -20 -40 -8 0 -16 -17 -20 -40 -5 -29 -12 -40 -25 -40 -11 0 -19 -9 -22
-25 -7 -32 3 -38 39 -24 50 20 86 24 198 23 90 -1 124 -6 190 -27 238 -78 407
-285 440 -539 4 -31 11 -48 20 -48 12 0 336 73 511 115 75 18 70 19 70 -5 0
-11 -4 -20 -8 -20 -5 0 -12 -10 -17 -22 -7 -21 -36 -30 -291 -88 l-283 -66
-14 -69 c-15 -78 -67 -190 -116 -249 -62 -76 -85 -96 -104 -90 -13 4 -14 3 -5
-3 15 -11 -9 -36 -45 -47 -13 -4 -23 -12 -23 -18 0 -5 -7 -7 -16 -4 -10 4 -13
2 -8 -6 5 -8 2 -9 -9 -5 -9 3 -19 1 -23 -5 -4 -7 -3 -8 4 -4 7 4 12 5 12 2 0
-14 -102 -48 -138 -47 -13 0 -21 -3 -18 -8 7 -10 -36 -14 -141 -14 -117 0
-133 3 -133 22 0 13 -2 13 -9 2 -6 -9 -15 -11 -27 -6 -11 4 -25 9 -32 11 -35
7 -152 71 -193 105 -41 34 -47 43 -45 76 1 35 -1 37 -31 39 -18 0 -30 -3 -27
-8 3 -4 10 -6 15 -3 5 4 9 1 9 -6 0 -8 4 -8 15 1 18 15 20 -1 3 -19 -10 -11
-10 -13 0 -7 6 4 12 2 12 -3 0 -6 -3 -11 -6 -11 -11 0 -64 55 -64 66 0 6 -6
17 -14 23 -12 10 -39 7 -128 -14 -62 -14 -165 -37 -228 -51 -63 -13 -152 -34
-198 -45 -45 -11 -92 -17 -105 -14 -18 5 -19 4 -7 -5 12 -9 10 -11 -12 -7 -15
2 -29 1 -30 -4 -3 -7 -175 -46 -243 -55 -16 -2 -37 -7 -45 -10 -8 -3 -31 -7
-50 -9 -19 -2 -26 -1 -15 2 l20 6 -20 8 c-14 6 -11 7 13 3 30 -5 44 7 22 21
-21 13 4 33 48 40 26 3 70 13 97 20 28 8 64 16 80 19 17 3 64 14 105 25 41 10
147 36 235 56 88 20 205 48 260 61 55 13 111 25 125 27 27 4 29 10 13 47 -18
43 -25 73 -17 67 5 -3 9 24 10 60 1 62 0 64 -13 39 -7 -14 -15 -26 -17 -26 -7
0 1 158 11 216 6 33 21 83 34 110 21 47 23 48 31 24 6 -20 7 -18 3 10 -3 23 1
44 13 61 9 15 29 45 44 67 15 22 35 45 45 51 29 16 7 24 -32 11 -24 -8 -35
-17 -31 -26 4 -11 -13 -14 -94 -14 -81 0 -98 3 -94 14 7 17 -14 23 -81 24 -27
1 -68 4 -89 8 -39 6 -39 6 -15 20 23 12 21 13 -31 14 -51 1 -53 2 -31 14 24
13 23 13 -15 20 -69 12 -76 16 -63 32 9 12 6 14 -22 14 -31 0 -32 1 -14 14 19
13 17 15 -18 21 -42 8 -57 23 -36 36 10 6 6 9 -13 9 -16 0 -28 5 -28 11 0 7
-15 26 -34 44 -22 20 -37 46 -41 69 -4 20 -13 36 -20 36 -7 0 -16 19 -21 43
-8 42 -8 42 -12 9 -6 -56 -22 -24 -23 46 -1 93 -17 128 -20 42 l-1 -65 -8 54
c-8 56 -13 205 -11 349 1 63 4 82 15 82 9 0 17 15 21 40 5 30 11 40 26 40 16
0 19 7 19 40 0 33 4 40 19 40 10 0 21 9 24 20 3 11 11 19 18 18 8 -2 15 7 17
20 3 18 10 22 42 22 30 0 38 3 34 14 -6 15 12 30 36 31 8 0 14 7 12 16 -2 12
8 16 48 18 27 1 59 5 72 11 l23 9 -25 1 -25 2 25 8 c14 4 90 8 170 8 80 0 156
-4 170 -8z m2448 -370 c-7 -10 -14 -18 -15 -16 -6 6 9 36 18 36 5 0 4 -9 -3
-20z m-3208 -157 c0 -20 -3 -24 -11 -16 -7 7 -9 19 -6 27 10 24 17 19 17 -11z
m1287 -155 c-2 -13 -4 -5 -4 17 -1 22 1 32 4 23 2 -10 2 -28 0 -40z m1474
-701 c-10 -9 -11 -8 -5 6 3 10 9 15 12 12 3 -3 0 -11 -7 -18z m-111 -167 c0
-5 -5 -10 -11 -10 -5 0 -7 5 -4 10 3 6 8 10 11 10 2 0 4 -4 4 -10z m-1896
-294 c-3 -15 -8 -25 -11 -23 -2 3 -1 17 3 31 3 15 8 25 11 23 2 -3 1 -17 -3
-31z m1686 -191 c0 -8 -4 -15 -10 -15 -5 0 -10 7 -10 15 0 8 5 15 10 15 6 0
10 -7 10 -15z m87 -67 c-3 -8 -6 -5 -6 6 -1 11 2 17 5 13 3 -3 4 -12 1 -19z
m-2763 -147 c4 -5 -3 -7 -14 -4 -23 6 -26 13 -6 13 8 0 17 -4 20 -9z m-47 -7
c-3 -3 -12 -4 -19 -1 -8 3 -5 6 6 6 11 1 17 -2 13 -5z m7 -47 c16 -12 16 -13
-1 -14 -10 -1 -34 -5 -53 -8 -35 -5 -35 -5 5 8 37 13 38 14 15 19 -20 4 -21 6
-4 7 11 0 28 -5 38 -12z m-87 -3 c-3 -3 -12 -4 -19 -1 -8 3 -5 6 6 6 11 1 17
-2 13 -5z m2307 -750 c3 -8 2 -12 -4 -9 -6 3 -10 10 -10 16 0 14 7 11 14 -7z
m2773 -160 c-3 -3 -12 -4 -19 -1 -8 3 -5 6 6 6 11 1 17 -2 13 -5z m450 -60
c-3 -3 -12 -4 -19 -1 -8 3 -5 6 6 6 11 1 17 -2 13 -5z m290 -80 c-3 -3 -12 -4
-19 -1 -8 3 -5 6 6 6 11 1 17 -2 13 -5z m308 -154 c3 -5 1 -10 -4 -10 -6 0
-11 5 -11 10 0 6 2 10 4 10 3 0 8 -4 11 -10z m242 -392 c-3 -8 -6 -5 -6 6 -1
11 2 17 5 13 3 -3 4 -12 1 -19z m-27 -35 c-11 -17 -11 -17 -6 0 3 10 6 24 7
30 0 9 2 9 5 0 3 -7 0 -20 -6 -30z m-50 -85 c0 -18 -2 -20 -9 -8 -6 8 -7 18
-5 22 9 14 14 9 14 -14z m-22 -39 c-3 -8 -7 -3 -11 10 -4 17 -3 21 5 13 5 -5
8 -16 6 -23z m-52 -70 c14 -16 15 -21 4 -17 -8 3 -23 -1 -33 -10 -16 -14 -16
-13 -6 16 6 18 12 32 13 32 2 0 11 -10 22 -21z m-4356 -229 c0 -5 -4 -10 -10
-10 -5 0 -10 5 -10 10 0 6 5 10 10 10 6 0 10 -4 10 -10z m4085 1 c3 -5 1 -12
-5 -16 -5 -3 -10 1 -10 9 0 18 6 21 15 7z m-365 -181 c8 -5 11 -10 5 -10 -5 0
-17 5 -25 10 -8 5 -10 10 -5 10 6 0 17 -5 25 -10z m-3630 -18 c0 -5 -7 -9 -15
-9 -8 0 -12 4 -9 9 3 4 9 8 15 8 5 0 9 -4 9 -8z m55 -41 c-3 -6 -11 -11 -16
-11 -5 0 -4 6 3 14 14 16 24 13 13 -3z m3060 -99 c-3 -3 -11 0 -18 7 -9 10 -8
11 6 5 10 -3 15 -9 12 -12z m-68 -38 c-3 -3 -12 -4 -19 -1 -8 3 -5 6 6 6 11 1
17 -2 13 -5z m-2633 -25 c-29 -11 -34 -10 -28 5 3 8 13 12 27 8 20 -5 20 -6 1
-13z m116 -9 c-8 -5 -22 -9 -30 -9 -10 0 -8 3 5 9 27 12 43 12 25 0z m2297
-16 c-3 -3 -12 -4 -19 -1 -8 3 -5 6 6 6 11 1 17 -2 13 -5z m-2050 -70 c-3 -3
-12 -4 -19 -1 -8 3 -5 6 6 6 11 1 17 -2 13 -5z m-2840 -176 c-3 -8 -6 -5 -6 6
-1 11 2 17 5 13 3 -3 4 -12 1 -19z m30 -120 c-3 -8 -6 -5 -6 6 -1 11 2 17 5
13 3 -3 4 -12 1 -19z m50 -50 c-3 -8 -6 -5 -6 6 -1 11 2 17 5 13 3 -3 4 -12 1
-19z m30 -200 c-3 -7 -5 -2 -5 12 0 14 2 19 5 13 2 -7 2 -19 0 -25z m30 -10
c-3 -7 -5 -2 -5 12 0 14 2 19 5 13 2 -7 2 -19 0 -25z m-50 -30 c-3 -8 -6 -5
-6 6 -1 11 2 17 5 13 3 -3 4 -12 1 -19z m55 -36 c2 -17 -1 -29 -7 -29 -6 0 -9
12 -7 29 2 15 5 28 7 28 2 0 5 -13 7 -28z m-45 -24 c-3 -7 -5 -2 -5 12 0 14 2
19 5 13 2 -7 2 -19 0 -25z m34 -51 c-10 -9 -11 -8 -5 6 3 10 9 15 12 12 3 -3
0 -11 -7 -18z m26 -19 c-3 -8 -6 -5 -6 6 -1 11 2 17 5 13 3 -3 4 -12 1 -19z
m35 -68 c3 -16 1 -30 -4 -30 -4 0 -8 14 -8 30 0 17 2 30 4 30 2 0 6 -13 8 -30z
m-55 -27 c-3 -10 -5 -4 -5 12 0 17 2 24 5 18 2 -7 2 -21 0 -30z m33 2 c0 -8
-2 -15 -4 -15 -2 0 -6 7 -10 15 -3 8 -1 15 4 15 6 0 10 -7 10 -15z m-16 -41
c3 -8 2 -12 -4 -9 -6 3 -10 10 -10 16 0 14 7 11 14 -7z m26 -39 l-7 -50 -2 46
c0 25 2 49 6 52 10 11 11 5 3 -48z m27 -17 c-3 -7 -5 -2 -5 12 0 14 2 19 5 13
2 -7 2 -19 0 -25z m21 -35 c1 -10 2 -30 3 -46 0 -15 4 -25 8 -23 4 3 8 0 9 -7
0 -7 2 -23 3 -37 0 -14 5 -34 10 -45 4 -11 17 -63 29 -115 11 -52 22 -104 25
-115 2 -11 18 -76 35 -144 17 -68 29 -130 26 -138 -3 -8 -1 -11 4 -8 6 4 7 -7
4 -27 -4 -25 -3 -29 5 -18 9 12 11 9 13 -15 3 -55 4 -60 10 -70 14 -24 48
-195 41 -211 -4 -10 -2 -15 3 -11 8 4 71 -244 79 -313 1 -8 5 -22 8 -30 16
-39 87 -366 82 -378 -2 -7 0 -10 5 -7 6 3 10 -2 10 -12 0 -10 14 -75 30 -143
17 -69 29 -133 26 -143 -2 -9 -1 -15 3 -13 4 3 19 -50 35 -117 33 -145 146
-638 181 -787 97 -418 170 -735 271 -1175 46 -203 91 -397 99 -430 8 -33 24
-100 35 -150 11 -49 25 -108 30 -130 9 -34 148 -641 250 -1085 74 -322 295
-1280 325 -1410 18 -80 59 -255 90 -390 64 -275 87 -331 167 -406 75 -70 164
-107 268 -112 73 -4 110 2 265 38 99 23 266 61 370 85 105 24 690 159 1300
300 611 141 1155 267 1210 280 584 134 1230 284 1725 400 58 13 166 38 240 55
307 69 613 145 599 148 -11 2 -14 11 -11 32 3 23 0 30 -12 30 -13 0 -16 11
-16 49 0 28 -5 51 -12 53 -16 6 15 50 58 83 22 17 34 34 34 51 0 22 4 24 43
24 l42 1 -30 13 -30 13 28 8 c32 8 33 13 10 31 -16 12 -15 13 15 14 19 0 45 9
59 20 14 11 34 20 44 20 24 0 35 20 18 31 -9 6 -1 9 25 9 37 0 38 1 20 14 -18
14 -18 15 9 25 16 6 33 11 38 11 19 0 8 19 -13 23 -13 2 0 5 27 7 28 1 42 4
33 7 -26 7 -22 17 12 30 17 6 30 18 30 27 0 11 9 16 31 16 17 0 28 4 24 10 -3
5 -12 7 -20 3 -8 -3 -15 0 -15 6 0 6 7 11 15 11 8 0 25 5 39 12 20 9 23 14 15
25 -9 10 -6 13 15 13 15 0 25 5 24 12 -2 7 12 17 30 22 20 7 32 16 32 28 0 12
8 18 25 18 17 0 23 4 19 14 -3 8 -1 17 5 21 7 3 11 -2 11 -14 0 -12 5 -21 11
-21 6 0 9 6 6 14 -7 18 11 36 29 29 9 -3 14 2 14 16 0 14 6 21 20 21 13 0 20
7 20 20 0 13 7 20 20 20 13 0 20 7 20 20 0 13 7 20 20 20 14 0 20 7 20 21 0
16 4 19 20 14 16 -5 20 -2 20 19 0 32 19 35 21 4 l2 -23 4 23 c3 15 11 22 29
22 13 0 23 3 23 8 -5 30 2 43 21 37 16 -5 20 -2 20 14 0 15 6 21 24 21 16 0
23 5 22 17 0 10 4 18 9 18 6 0 16 4 23 8 6 5 17 5 23 2 6 -4 13 2 16 14 5 19
12 21 87 21 50 0 76 -4 67 -9 -17 -11 -6 -31 19 -31 21 0 28 -24 40 -134 5
-52 8 -60 9 -28 0 23 6 42 12 42 7 0 10 -107 8 -337 -1 -337 -5 -409 -20 -348
-7 30 -7 30 -6 -5 2 -31 5 -35 33 -38 17 -2 76 6 130 18 217 45 268 52 287 40
10 -6 23 -8 30 -4 9 5 9 4 0 -6 -10 -11 -15 -11 -27 -1 -10 9 -29 11 -57 6
-29 -5 -37 -10 -28 -16 8 -5 18 -4 23 1 13 13 46 13 46 0 0 -5 -9 -10 -19 -10
-11 0 -27 -7 -35 -16 -9 -8 -76 -31 -149 -50 -196 -51 -235 -65 -239 -83 -2
-9 -5 -189 -6 -401 -2 -388 -8 -503 -22 -479 -5 7 -11 -6 -14 -34 -17 -136
-19 -143 -26 -117 l-6 25 -7 -25 c-4 -14 -7 -37 -7 -51 0 -26 -2 -27 -67 -31
-73 -5 -108 5 -99 28 4 10 -2 14 -19 14 -18 0 -23 4 -19 15 4 8 1 15 -5 15 -6
0 -11 -7 -11 -15 0 -8 -4 -15 -10 -15 -5 0 -10 9 -10 20 0 14 -6 20 -17 18
-12 -2 -19 4 -21 20 -3 16 -10 22 -29 22 -18 0 -24 4 -20 15 4 8 2 17 -3 20
-6 4 -10 -3 -10 -14 0 -12 -5 -21 -11 -21 -5 0 -8 4 -5 9 10 16 -6 42 -21 37
-9 -4 -17 1 -20 14 -3 11 -14 20 -24 20 -12 0 -19 7 -19 20 0 13 -7 20 -20 20
-13 0 -20 7 -20 20 0 11 -4 20 -10 20 -5 0 -10 -7 -10 -15 0 -8 -5 -15 -11
-15 -6 0 -9 7 -5 15 3 8 1 15 -4 15 -5 0 -7 7 -4 15 4 8 1 15 -5 15 -6 0 -11
-7 -11 -15 0 -8 -5 -15 -11 -15 -5 0 -7 5 -4 10 9 15 -14 40 -31 33 -9 -3 -14
2 -14 16 0 14 -6 21 -20 21 -14 0 -20 7 -20 21 0 15 -5 19 -19 14 -19 -6 -36
18 -25 36 3 5 0 9 -5 9 -6 0 -11 -7 -11 -15 0 -8 -5 -15 -11 -15 -6 0 -9 7 -5
15 3 8 1 15 -5 15 -6 0 -9 7 -6 15 4 8 2 17 -3 20 -6 4 -10 -3 -10 -14 0 -12
-5 -21 -11 -21 -5 0 -8 4 -5 9 10 16 -6 42 -21 37 -9 -4 -17 1 -20 14 -3 11
-14 20 -24 20 -12 0 -19 7 -19 20 0 13 -7 20 -20 20 -13 0 -20 7 -20 20 0 17
-7 20 -39 20 -31 0 -40 4 -40 18 -2 44 -6 62 -13 62 -4 0 -8 -9 -8 -20 0 -11
-4 -20 -10 -20 -5 0 -10 9 -10 20 0 15 -7 20 -25 20 -18 0 -25 5 -25 19 0 13
-10 20 -31 25 -22 4 -30 10 -25 21 3 9 0 15 -9 15 -8 0 -15 6 -16 13 0 10 -2
10 -6 0 -5 -14 -24 -18 -22 -5 4 22 -3 32 -22 32 -11 0 -17 5 -14 10 4 6 10 8
15 5 4 -3 14 3 21 12 12 15 12 16 -4 10 -10 -4 -82 -20 -160 -36 -78 -17 -203
-44 -277 -61 -74 -17 -211 -48 -305 -70 -93 -21 -260 -60 -370 -85 -110 -25
-229 -52 -265 -60 -36 -7 -202 -45 -370 -84 -168 -39 -541 -124 -830 -191
-289 -66 -563 -129 -610 -140 -126 -29 -2008 -462 -2370 -544 -85 -20 -181
-36 -214 -36 -127 0 -264 57 -356 150 -100 100 -108 124 -230 657 -61 263
-121 525 -135 583 -14 58 -72 312 -130 565 -58 253 -112 487 -120 520 -15 64
-36 155 -230 1000 -69 303 -144 629 -167 725 -22 96 -47 204 -55 240 -11 54
-184 805 -278 1210 -13 58 -56 245 -95 415 -38 171 -75 328 -81 350 -5 22 -11
51 -13 65 -2 14 -6 32 -10 40 -3 8 -8 29 -10 45 -2 17 -6 37 -9 45 -15 37 -67
282 -62 290 3 4 2 10 -3 12 -6 2 -48 170 -58 233 -2 11 -10 45 -18 75 -9 30
-13 63 -10 74 4 11 2 16 -4 12 -14 -8 -24 65 -11 81 6 7 9 18 6 25 -4 8 -6 7
-6 -4 -3 -64 -41 61 -41 135 0 14 -4 27 -9 29 -5 2 -11 21 -14 43 -3 22 -10
52 -16 67 -5 14 -8 28 -5 30 2 3 -2 20 -10 39 -7 19 -12 54 -10 79 2 25 3 49
3 53 1 5 6 5 12 1 6 -3 8 -17 4 -31 -8 -33 4 -71 16 -52 5 8 9 19 9 24 0 6 -5
3 -10 -5 -7 -11 -9 -4 -9 25 1 45 -18 164 -20 125 -1 -20 -3 -22 -11 -10 -8
12 -10 10 -10 -8 0 -13 4 -20 10 -17 14 9 12 -8 -4 -40 l-15 -28 0 34 c-1 82
-5 153 -9 137 -2 -10 -7 -18 -11 -18 -11 0 -13 21 -10 110 0 19 -4 36 -10 38
-16 5 -13 22 4 22 10 0 15 10 15 34 0 45 -18 56 -22 14 -3 -36 -20 -45 -26
-14 -2 10 0 16 6 12 13 -8 25 58 17 95 -4 16 -2 29 3 29 5 0 9 -8 10 -17z
m-20 -54 c-3 -8 -7 -3 -11 10 -4 17 -3 21 5 13 5 -5 8 -16 6 -23z m-31 -16
c-3 -10 -5 -4 -5 12 0 17 2 24 5 18 2 -7 2 -21 0 -30z m21828 -53 c3 -5 1 -10
-4 -10 -6 0 -11 5 -11 10 0 6 2 10 4 10 3 0 8 -4 11 -10z m-21785 -92 c0 -36
-4 -35 -14 5 -4 16 -2 27 4 27 5 0 10 -14 10 -32z m14907 -2704 c-3 -3 -12 -4
-19 -1 -8 3 -5 6 6 6 11 1 17 -2 13 -5z m-4450 -756 c-3 -8 -6 -5 -6 6 -1 11
2 17 5 13 3 -3 4 -12 1 -19z m8633 -5 c343 -71 620 -291 766 -608 111 -240
124 -542 35 -798 l-28 -83 79 -16 c143 -30 273 -109 364 -222 94 -117 133
-221 141 -376 7 -131 -17 -232 -82 -342 -44 -76 -156 -194 -181 -192 -7 1 -12
-3 -11 -8 4 -20 -180 -105 -229 -106 -18 0 -51 -6 -74 -12 -47 -13 -162 -3
-139 11 11 7 10 9 -3 9 -10 0 -18 5 -18 11 0 5 -5 7 -11 3 -8 -4 -7 -9 2 -15
10 -6 8 -9 -9 -9 -13 0 -21 4 -18 9 6 10 -43 25 -52 16 -3 -3 2 -5 11 -5 9 0
19 -4 22 -10 3 -5 -13 -3 -37 6 -65 23 -165 72 -173 84 -4 7 7 4 25 -5 18 -9
29 -12 26 -7 -3 6 -1 12 6 14 7 3 5 7 -6 11 -11 5 -15 3 -10 -5 5 -8 2 -9 -12
-3 -10 4 -28 9 -39 10 -11 1 -19 8 -17 16 2 8 0 11 -4 7 -11 -12 -34 11 -27
28 3 8 10 14 15 14 6 0 7 -7 4 -16 -3 -8 -2 -12 4 -9 30 18 -18 52 -49 35 -16
-8 -21 -6 -26 10 -3 11 -3 25 1 32 6 10 4 10 -8 0 -14 -11 -19 -9 -37 16 -11
16 -17 32 -14 36 4 3 -1 12 -9 19 -45 34 -64 120 -44 197 6 22 6 23 -3 4 -26
-59 -44 -16 -45 108 -1 38 -4 68 -8 68 -5 0 -8 -4 -8 -9 0 -4 -26 -14 -57 -20
-163 -35 -322 -36 -316 -4 1 7 -7 9 -19 5 -21 -5 -21 -6 -2 -14 12 -5 4 -6
-21 -2 -22 4 -51 7 -65 9 -14 1 -33 3 -43 3 -11 1 -15 7 -11 14 5 8 2 9 -10 5
-21 -8 -98 12 -90 24 2 4 -4 13 -15 18 -29 16 -38 13 -15 -4 10 -8 15 -14 9
-14 -15 0 -45 25 -40 33 3 3 0 2 -6 -3 -14 -11 -61 7 -53 20 3 5 10 9 15 9 6
0 7 -4 4 -10 -4 -6 1 -7 11 -3 15 5 15 7 0 15 -10 5 -23 5 -36 -2 -18 -10 -24
-7 -21 12 0 4 -7 4 -16 1 -12 -5 -14 -3 -8 7 5 9 4 11 -3 6 -7 -4 -17 -4 -24
0 -8 5 -6 10 8 16 16 7 15 8 -5 4 -13 -3 -33 0 -44 6 -20 10 -20 11 4 25 22
13 14 13 -21 -1 -16 -6 -175 116 -175 134 0 5 -10 16 -21 25 -35 24 -140 189
-182 285 -16 35 -50 124 -50 130 0 3 -5 25 -12 50 -12 45 -17 86 -26 210 -3
46 -1 61 6 50 13 -19 13 -8 0 26 -11 28 4 178 19 199 4 5 8 21 9 34 2 42 35
122 45 108 5 -8 7 -3 3 13 -3 14 -1 32 4 40 5 8 10 11 11 5 0 -5 7 12 15 38 9
30 19 45 26 41 6 -4 8 -3 5 4 -4 5 -4 18 0 28 6 15 7 15 18 1 10 -14 12 -11
12 15 0 18 5 34 11 36 7 2 12 9 12 15 1 17 39 61 47 53 3 -3 -1 -14 -10 -24
-10 -10 -17 -22 -17 -27 0 -4 11 5 25 21 16 19 21 31 13 35 -8 5 -2 18 16 41
44 53 170 158 184 153 7 -3 10 0 7 5 -13 21 193 128 321 165 152 44 344 51
504 18z m-8641 -43 c0 -9 -4 -8 -9 5 -5 11 -9 27 -9 35 0 9 4 8 9 -5 5 -11 9
-27 9 -35z m16 -30 c3 -5 1 -10 -4 -10 -6 0 -11 5 -11 10 0 6 2 10 4 10 3 0 8
-4 11 -10z m71 -22 c0 -16 -1 -16 -21 0 -11 9 -21 18 -23 18 -2 1 7 1 20 1 15
-1 24 -8 24 -19z m-21 -18 c3 -5 1 -10 -4 -10 -6 0 -11 5 -11 10 0 6 2 10 4
10 3 0 8 -4 11 -10z m140 -80 c3 -5 -1 -10 -9 -10 -8 0 -18 5 -21 10 -3 6 1
10 9 10 8 0 18 -4 21 -10z m129 -116 c7 -19 2 -18 -19 6 -16 17 -16 20 -3 15
9 -4 19 -13 22 -21z m2510 -39 c5 -29 4 -36 -3 -25 -6 8 -11 28 -11 44 0 39 6
31 14 -19z m-2316 -71 c2 -1 -1 -5 -7 -8 -5 -4 -15 4 -22 16 -12 22 -11 22 7
8 10 -8 20 -15 22 -16z m2327 -4 c-4 -12 -9 -19 -12 -17 -3 3 -2 15 2 27 4 12
9 19 12 17 3 -3 2 -15 -2 -27z m30 -124 c3 -20 -2 -12 -15 24 l-20 55 5 -47
c4 -27 2 -49 -5 -53 -11 -7 -14 72 -3 101 6 15 9 13 20 -15 8 -18 16 -47 18
-65z m-2240 64 c-3 -5 -11 -10 -16 -10 -6 0 -7 5 -4 10 3 6 11 10 16 10 6 0 7
-4 4 -10z m110 -20 c3 -5 1 -10 -4 -10 -6 0 -11 5 -11 10 0 6 2 10 4 10 3 0 8
-4 11 -10z m55 -50 c0 -5 -4 -10 -10 -10 -5 0 -10 5 -10 10 0 6 5 10 10 10 6
0 10 -4 10 -10z m-85 -21 c11 -17 -1 -21 -15 -4 -8 9 -8 15 -2 15 6 0 14 -5
17 -11z m2135 -19 c0 8 2 11 5 8 3 -2 -2 -22 -10 -44 -15 -38 -15 -38 -9 -5 4
23 3 31 -5 27 -6 -4 -11 0 -11 10 0 13 3 14 15 4 12 -10 15 -10 15 0z m-2095
-10 c3 -6 -1 -7 -9 -4 -18 7 -21 14 -7 14 6 0 13 -4 16 -10z m2108 -81 c5 -19
3 -26 -8 -26 -17 0 -17 2 -9 35 8 27 9 26 17 -9z m34 9 c-3 -8 -6 -5 -6 6 -1
11 2 17 5 13 3 -3 4 -12 1 -19z m-2017 -14 c0 -14 -3 -14 -15 -4 -8 7 -15 14
-15 16 0 2 7 4 15 4 8 0 15 -7 15 -16z m60 -28 c0 -2 -7 -7 -16 -10 -8 -3 -12
-2 -9 4 6 10 25 14 25 6z m1977 -18 c-3 -8 -6 -5 -6 6 -1 11 2 17 5 13 3 -3 4
-12 1 -19z m-1847 -88 c0 -5 -4 -10 -10 -10 -5 0 -10 5 -10 10 0 6 5 10 10 10
6 0 10 -4 10 -10z m1839 -95 c0 -5 -4 -3 -9 5 -5 8 -9 22 -9 30 0 16 17 -16
18 -35z m-1380 -219 c9 -11 7 -13 -13 -13 -20 0 -22 2 -13 13 15 16 13 16 26
0z m62 -49 c-13 -13 -26 -3 -16 12 3 6 11 8 17 5 6 -4 6 -10 -1 -17z m69 -27
c0 -5 -4 -10 -9 -10 -6 0 -13 5 -16 10 -3 6 1 10 9 10 9 0 16 -4 16 -10z m95
-71 c11 -17 2 -18 -19 -3 -17 12 -17 14 -4 14 9 0 20 -5 23 -11z m110 -89 c3
-5 -1 -10 -9 -10 -9 0 -16 5 -16 10 0 6 4 10 9 10 6 0 13 -4 16 -10z m130
-110 c-3 -5 -12 -10 -18 -10 -7 0 -6 4 3 10 19 12 23 12 15 0z m85 -54 c0 -3
-4 -8 -10 -11 -5 -3 -10 -1 -10 4 0 6 5 11 10 11 6 0 10 -2 10 -4z m71 -73
c13 -16 12 -17 -3 -4 -17 13 -22 21 -14 21 2 0 10 -8 17 -17z m409 -188 c0 -8
-4 -15 -10 -15 -5 0 -10 7 -10 15 0 8 5 15 10 15 6 0 10 -7 10 -15z m-55 -45
c-3 -5 -12 -10 -18 -10 -7 0 -6 4 3 10 19 12 23 12 15 0z m175 -130 c0 -5 -2
-10 -4 -10 -3 0 -8 5 -11 10 -3 6 -1 10 4 10 6 0 11 -4 11 -10z m78 -29 c9 -5
4 -8 -16 -7 -17 1 -28 4 -25 9 6 9 25 9 41 -2z m43 -88 c31 -18 40 -39 13 -29
-10 4 -21 0 -28 -10 -12 -16 -141 -50 -506 -134 -102 -23 -230 -53 -285 -66
-55 -13 -179 -41 -275 -63 -96 -22 -301 -69 -455 -105 -367 -85 -651 -147
-678 -149 -12 0 -25 -5 -28 -9 -3 -5 -46 -10 -95 -12 -49 -2 -73 -1 -54 1 19
3 39 11 43 19 5 9 17 12 34 8 18 -5 24 -3 19 5 -4 6 -23 11 -43 11 -20 0 -34
3 -30 6 3 3 22 6 42 6 20 0 34 3 30 6 -7 8 121 40 675 168 505 117 629 146
1210 279 85 19 200 44 255 56 55 11 102 22 104 25 8 8 23 4 52 -13z m109 -35
c0 -13 -32 -6 -37 9 -3 7 3 9 16 6 12 -3 21 -10 21 -15z m470 -327 c0 -5 -7
-11 -14 -14 -10 -4 -13 -1 -9 9 6 15 23 19 23 5z m140 -95 c0 -2 -7 -7 -16
-10 -8 -3 -12 -2 -9 4 6 10 25 14 25 6z m5404 -31 c-6 -16 -24 -21 -24 -7 0
11 11 22 21 22 5 0 6 -7 3 -15z m-5327 -41 c-2 -2 -12 -1 -22 3 -18 6 -18 7 1
13 17 7 33 -5 21 -16z m78 -64 c3 -6 -1 -7 -9 -4 -18 7 -21 14 -7 14 6 0 13
-4 16 -10z m59 -36 c3 -8 2 -12 -4 -9 -6 3 -10 10 -10 16 0 14 7 11 14 -7z
m106 -4 c0 -5 -4 -10 -9 -10 -6 0 -13 5 -16 10 -3 6 1 10 9 10 9 0 16 -4 16
-10z m-4458 -187 c-13 -3 -19 -9 -16 -15 4 -7 2 -8 -5 -4 -17 11 -3 26 22 25
22 -2 22 -2 -1 -6z m-57 -23 c-3 -5 -11 -10 -16 -10 -6 0 -7 5 -4 10 3 6 11
10 16 10 6 0 7 -4 4 -10z m4833 -7 c-2 -9 -8 -18 -15 -20 -7 -3 -9 3 -6 16 6
25 26 28 21 4z m-4908 -13 c-20 -13 -43 -13 -35 0 3 6 16 10 28 10 18 0 19 -2
7 -10z m4860 -20 c0 -5 -8 -10 -17 -10 -15 0 -16 2 -3 10 19 12 20 12 20 0z
m46 -51 c19 -22 19 -22 -3 -8 -13 8 -23 17 -23 21 0 12 6 9 26 -13z m80 -44
c16 -12 16 -14 3 -15 -9 0 -22 7 -29 15 -16 19 0 19 26 0z m-5390 -30 c1 -8
-2 -15 -7 -15 -5 0 -9 10 -9 22 0 23 12 17 16 -7z m5520 -27 c-9 -5 -23 -5
-32 0 -12 6 -7 9 16 9 23 0 28 -3 16 -9z m120 -97 c14 -11 20 -22 15 -25 -5
-4 -12 -2 -16 3 -3 6 -11 9 -18 7 -7 -1 -8 -1 -4 2 4 2 3 10 -4 18 -17 20 -1
17 27 -5z m-7045 -54 c-10 -9 -11 -8 -5 6 3 10 9 15 12 12 3 -3 0 -11 -7 -18z
m7144 -7 c3 -5 -1 -10 -9 -10 -8 0 -18 5 -21 10 -3 6 1 10 9 10 8 0 18 -4 21
-10z m210 -177 c1 -14 -3 -19 -12 -16 -17 6 -17 23 0 23 8 0 7 4 -3 11 -12 8
-12 10 -1 7 8 -2 15 -14 16 -25z m-6965 -153 c0 -5 -5 -10 -11 -10 -5 0 -7 5
-4 10 3 6 8 10 11 10 2 0 4 -4 4 -10z m967 -412 c-3 -7 -5 -2 -5 12 0 14 2 19
5 13 2 -7 2 -19 0 -25z m-180 -204 c-3 -3 -12 -4 -19 -1 -8 3 -5 6 6 6 11 1
17 -2 13 -5z"/>
<path d="M14240 17143 c-399 -61 -790 -335 -1031 -723 -55 -89 -134 -248 -126
-256 4 -4 81 11 182 36 161 39 931 211 954 213 16 1 27 5 24 10 -2 4 8 8 24 8
46 2 66 6 97 18 16 6 31 10 33 7 2 -2 32 5 65 15 34 10 65 16 70 13 4 -3 8 -1
8 4 0 6 -7 12 -15 16 -17 6 -20 42 -5 51 6 3 10 14 9 23 0 14 -2 14 -10 -3 -7
-15 -8 -10 -5 22 2 23 0 43 -5 45 -5 2 -10 37 -12 79 -1 42 -4 73 -7 68 -3 -5
-11 17 -18 48 -6 30 -9 60 -6 64 3 5 1 9 -3 9 -14 0 -32 58 -26 82 4 19 3 20
-6 8 -9 -13 -11 -13 -11 1 0 9 -7 30 -15 45 -8 16 -12 36 -9 46 2 9 0 19 -5
23 -7 4 -8 -1 -4 -12 3 -10 3 -15 -1 -12 -4 4 -9 17 -11 29 -4 21 -22 41 -35
39 -3 -1 -48 -8 -100 -16z"/>
<path d="M14488 17143 c7 -3 16 -2 19 1 4 3 -2 6 -13 5 -11 0 -14 -3 -6 -6z"/>
<path d="M14546 17141 c-19 -7 -19 -8 2 -13 12 -4 20 -2 17 2 -3 5 1 11 7 13
7 3 9 5 3 6 -5 0 -19 -4 -29 -8z"/>
<path d="M14598 17133 c7 -3 16 -2 19 1 4 3 -2 6 -13 5 -11 0 -14 -3 -6 -6z"/>
<path d="M14725 17110 c3 -4 14 -10 25 -13 11 -3 18 -2 15 3 -3 4 -14 10 -25
13 -11 3 -18 2 -15 -3z"/>
<path d="M14789 17081 c11 -7 11 -9 0 -14 -11 -4 -11 -6 -1 -6 7 -1 10 -6 7
-11 -4 -6 5 -5 20 2 l26 12 -23 13 c-26 14 -51 18 -29 4z"/>
<path d="M14748 17053 c7 -3 16 -2 19 1 4 3 -2 6 -13 5 -11 0 -14 -3 -6 -6z"/>
<path d="M14441 17035 c0 -5 6 -21 14 -35 8 -14 14 -20 14 -15 0 6 -6 21 -14
35 -8 14 -14 21 -14 15z"/>
<path d="M14920 17030 c0 -6 7 -13 15 -17 24 -9 27 1 5 15 -13 8 -20 8 -20 2z"/>
<path d="M14920 16990 c0 -5 5 -10 11 -10 5 0 7 5 4 10 -3 6 -8 10 -11 10 -2
0 -4 -4 -4 -10z"/>
<path d="M14966 16978 c2 -3 -2 -9 -8 -11 -9 -4 -8 -6 2 -6 8 0 26 6 39 13
l24 13 -31 -1 c-16 0 -28 -4 -26 -8z"/>
<path d="M15020 16969 c-12 -8 -11 -9 5 -7 12 2 19 -2 17 -10 -1 -8 2 -11 8
-7 8 5 7 11 -1 21 -14 17 -10 16 -29 3z"/>
<path d="M14456 16958 c3 -5 10 -6 15 -3 13 9 11 12 -6 12 -8 0 -12 -4 -9 -9z"/>
<path d="M15055 16917 c6 -14 60 -40 87 -42 14 -1 15 1 6 12 -7 9 -13 10 -18
3 -4 -6 -19 -1 -40 15 -39 29 -41 30 -35 12z"/>
<path d="M15203 16817 c6 -15 16 -27 20 -27 5 0 18 -10 28 -22 17 -20 19 -20
10 -3 -5 11 -23 33 -40 49 l-31 30 13 -27z"/>
<path d="M15165 16820 c-3 -5 -1 -10 4 -10 6 0 11 5 11 10 0 6 -2 10 -4 10 -3
0 -8 -4 -11 -10z"/>
<path d="M14521 16784 c0 -11 3 -14 6 -6 3 7 2 16 -1 19 -3 4 -6 -2 -5 -13z"/>
<path d="M15220 16761 c0 -5 7 -15 17 -22 15 -13 15 -12 4 9 -12 23 -21 28
-21 13z"/>
<path d="M14527 16726 c-5 -21 -6 -41 -3 -44 3 -3 7 6 7 19 1 21 2 21 9 -6 6
-23 8 -25 9 -8 0 12 4 30 7 40 5 14 4 15 -4 4 -8 -11 -11 -9 -14 10 -3 19 -5
17 -11 -15z"/>
<path d="M15276 16732 c-2 -4 -1 -14 5 -22 6 -11 9 -12 9 -2 0 8 5 10 13 6 8
-5 8 -2 -2 9 -15 19 -18 20 -25 9z"/>
<path d="M15318 16678 c17 -17 15 -33 -3 -18 -13 11 -14 10 -9 -4 7 -18 20
-21 28 -7 8 13 -4 41 -17 41 -7 0 -7 -4 1 -12z"/>
<path d="M15281 16654 c0 -11 3 -14 6 -6 3 7 2 16 -1 19 -3 4 -6 -2 -5 -13z"/>
<path d="M14542 16635 c0 -16 2 -22 5 -12 2 9 2 23 0 30 -3 6 -5 -1 -5 -18z"/>
<path d="M15375 16539 c-4 -6 -5 -12 -2 -15 2 -3 7 2 10 11 7 17 1 20 -8 4z"/>
<path d="M15795 16520 c3 -5 8 -10 11 -10 2 0 4 5 4 10 0 6 -5 10 -11 10 -5 0
-7 -4 -4 -10z"/>
<path d="M15386 16505 c-9 -26 -7 -32 5 -12 6 10 9 21 6 23 -2 3 -7 -2 -11
-11z"/>
<path d="M15416 16504 c-3 -9 -4 -19 -1 -22 3 -3 5 1 5 9 0 11 2 11 10 -1 5
-8 10 -10 10 -5 0 6 -4 16 -9 23 -6 11 -10 10 -15 -4z"/>
<path d="M15830 16482 c0 -11 50 -56 50 -45 0 5 -11 19 -25 31 -14 12 -25 19
-25 14z"/>
<path d="M14368 16423 c7 -3 16 -2 19 1 4 3 -2 6 -13 5 -11 0 -14 -3 -6 -6z"/>
<path d="M14478 16409 c-2 -6 -22 -11 -45 -12 -22 -1 -38 -6 -35 -11 3 -5 -7
-6 -22 -2 -20 5 -26 4 -20 -5 5 -9 1 -10 -14 -7 -12 3 -22 3 -24 -1 -2 -4 -37
-14 -78 -23 -41 -10 -183 -42 -315 -74 -132 -31 -384 -89 -559 -130 -176 -41
-323 -79 -327 -86 -12 -19 -58 -216 -69 -293 -24 -176 -7 -433 40 -602 18 -66
91 -247 104 -260 10 -10 173 17 264 43 515 149 944 611 1082 1164 11 47 25 95
31 106 6 12 8 30 5 40 -3 11 -1 26 4 34 8 12 10 10 11 -10 0 -14 3 -19 6 -12
3 7 0 25 -6 41 -15 34 1 81 26 81 14 1 12 4 -7 15 -30 17 -47 19 -52 4z"/>
<path d="M15460 16412 c0 -8 -5 -10 -12 -6 -10 6 -10 4 -2 -7 6 -8 13 -21 16
-29 3 -10 6 -8 10 7 3 11 2 27 -3 34 -7 11 -9 11 -9 1z"/>
<path d="M15477 16356 c-5 -12 18 -76 27 -76 1 0 1 13 -2 30 -2 16 -9 27 -14
24 -6 -4 -8 2 -3 15 7 23 0 29 -8 7z"/>
<path d="M11816 16328 c-3 -13 -5 -39 -5 -58 1 -27 3 -22 9 20 9 58 7 77 -4
38z"/>
<path d="M15451 16340 c0 -8 4 -22 9 -30 12 -18 12 -2 0 25 -6 13 -9 15 -9 5z"/>
<path d="M14520 16331 c0 -6 4 -13 10 -16 6 -3 7 1 4 9 -7 18 -14 21 -14 7z"/>
<path d="M15946 16317 c3 -10 9 -15 12 -12 3 3 0 11 -7 18 -10 9 -11 8 -5 -6z"/>
<path d="M15516 16237 c3 -10 9 -15 12 -12 3 3 0 11 -7 18 -10 9 -11 8 -5 -6z"/>
<path d="M11810 16170 c0 -5 5 -10 10 -10 6 0 10 5 10 10 0 6 -4 10 -10 10 -5
0 -10 -4 -10 -10z"/>
<path d="M15530 16140 c5 -18 12 -35 16 -39 9 -9 -7 53 -17 63 -5 5 -4 -5 1
-24z"/>
<path d="M11807 16063 c-4 -3 -7 -11 -7 -17 0 -6 5 -5 12 2 6 6 9 14 7 17 -3
3 -9 2 -12 -2z"/>
<path d="M15531 15984 c0 -11 3 -14 6 -6 3 7 2 16 -1 19 -3 4 -6 -2 -5 -13z"/>
<path d="M11813 15931 c1 -14 9 -26 17 -28 10 -3 11 -2 4 4 -7 4 -14 17 -17
28 -5 16 -5 15 -4 -4z"/>
<path d="M15552 15930 c0 -14 2 -19 5 -12 2 6 2 18 0 25 -3 6 -5 1 -5 -13z"/>
<path d="M15531 15904 c0 -11 3 -14 6 -6 3 7 2 16 -1 19 -3 4 -6 -2 -5 -13z"/>
<path d="M12854 15866 c-3 -8 -2 -22 3 -31 8 -13 10 -10 10 14 0 34 -5 39 -13
17z"/>
<path d="M12812 15845 c0 -16 2 -22 5 -12 2 9 2 23 0 30 -3 6 -5 -1 -5 -18z"/>
<path d="M15526 15845 c-9 -26 -7 -32 5 -12 6 10 9 21 6 23 -2 3 -7 -2 -11
-11z"/>
<path d="M12832 15815 c0 -16 2 -22 5 -12 2 9 2 23 0 30 -3 6 -5 -1 -5 -18z"/>
<path d="M12847 15788 c-3 -12 -3 -28 1 -35 5 -8 8 0 9 22 1 40 -2 44 -10 13z"/>
<path d="M11820 15790 c-8 -5 -175 -46 -370 -90 -1152 -263 -2094 -481 -2098
-484 -8 -9 1374 -1845 1389 -1845 9 -1 37 15 62 34 25 19 49 35 52 35 3 0 32
17 63 39 265 179 712 408 1227 628 137 59 316 123 326 117 5 -3 9 -1 9 5 0 5
14 13 32 16 18 4 39 11 48 16 8 4 60 21 115 38 55 16 145 43 200 60 179 54
385 103 403 96 11 -4 9 2 -8 18 -14 14 -29 22 -34 19 -5 -2 -6 1 -4 9 3 8 11
13 17 11 7 -1 10 2 6 8 -3 6 -11 8 -16 4 -5 -3 -18 0 -27 8 -15 12 -16 11 -3
-5 13 -17 13 -17 -12 -6 -15 7 -24 16 -20 22 3 6 1 7 -5 4 -14 -10 -113 43
-105 56 3 6 1 7 -5 3 -17 -10 -136 55 -120 66 9 6 7 8 -7 6 -57 -4 -72 10 -32
31 17 9 17 10 2 5 -11 -3 -27 -8 -37 -11 -9 -3 -26 5 -38 17 -12 12 -24 19
-27 17 -3 -3 -37 13 -77 36 -40 23 -93 53 -119 67 -32 17 -43 27 -34 33 8 6 7
7 -5 3 -10 -3 -48 12 -89 34 -39 22 -74 40 -76 40 -3 0 -46 31 -96 69 -109 82
-159 133 -151 154 3 8 1 18 -5 22 -7 3 -8 0 -5 -9 11 -30 -11 -16 -36 22 -14
20 -31 42 -39 48 -8 7 -11 16 -6 24 5 8 4 11 -2 7 -29 -18 -37 46 -9 65 7 5 6
8 -2 8 -8 0 -16 -9 -19 -20 -3 -11 -10 -17 -15 -14 -5 3 -7 12 -4 20 3 8 1 13
-5 11 -15 -3 -98 153 -99 186 0 19 -4 26 -12 21 -8 -5 -9 0 -6 14 4 12 2 20
-3 16 -5 -3 -9 11 -9 31 0 21 -4 34 -10 30 -6 -4 -7 1 -3 11 5 13 3 15 -7 9
-9 -5 -11 -4 -6 4 4 6 2 18 -4 26 -6 8 -9 23 -5 35 4 12 2 20 -5 20 -7 0 -10
8 -7 20 3 11 4 20 4 19 -1 0 -9 -4 -17 -9z"/>
<path d="M11866 15745 c-9 -26 -7 -32 5 -12 6 10 9 21 6 23 -2 3 -7 -2 -11
-11z"/>
<path d="M11901 15724 c0 -11 3 -14 6 -6 3 7 2 16 -1 19 -3 4 -6 -2 -5 -13z"/>
<path d="M12832 15660 c0 -14 2 -19 5 -12 2 6 2 18 0 25 -3 6 -5 1 -5 -13z"/>
<path d="M12811 15614 c0 -11 3 -14 6 -6 3 7 2 16 -1 19 -3 4 -6 -2 -5 -13z"/>
<path d="M12836 15605 c-3 -9 -6 -22 -5 -28 0 -7 5 -1 10 12 5 13 8 26 5 28
-2 2 -6 -3 -10 -12z"/>
<path d="M12811 15534 c0 -11 3 -14 6 -6 3 7 2 16 -1 19 -3 4 -6 -2 -5 -13z"/>
<path d="M15491 15534 c0 -11 3 -14 6 -6 3 7 2 16 -1 19 -3 4 -6 -2 -5 -13z"/>
<path d="M15466 15517 c3 -10 9 -15 12 -12 3 3 0 11 -7 18 -10 9 -11 8 -5 -6z"/>
<path d="M11930 15518 c0 -4 9 -22 19 -40 11 -17 18 -35 15 -40 -3 -4 0 -8 6
-8 8 0 9 7 5 18 -15 35 -17 52 -7 52 6 0 13 -6 15 -12 3 -7 6 -8 6 -3 0 6 -4
17 -9 25 -9 13 -11 13 -20 0 -9 -13 -11 -13 -20 0 -5 8 -10 12 -10 8z"/>
<path d="M12821 15494 c0 -11 3 -14 6 -6 3 7 2 16 -1 19 -3 4 -6 -2 -5 -13z"/>
<path d="M12801 15455 c1 -19 18 -51 18 -35 0 8 -4 22 -9 30 -5 8 -9 11 -9 5z"/>
<path d="M11980 15415 c0 -5 5 -17 10 -25 5 -8 10 -10 10 -5 0 6 -5 17 -10 25
-5 8 -10 11 -10 5z"/>
<path d="M12833 15355 c0 -22 2 -30 4 -17 2 12 2 30 0 40 -3 9 -5 -1 -4 -23z"/>
<path d="M12056 15325 c-9 -26 -7 -32 5 -12 6 10 9 21 6 23 -2 3 -7 -2 -11
-11z"/>
<path d="M12812 15255 c0 -16 2 -22 5 -12 2 9 2 23 0 30 -3 6 -5 -1 -5 -18z"/>
<path d="M12831 15264 c0 -11 3 -14 6 -6 3 7 2 16 -1 19 -3 4 -6 -2 -5 -13z"/>
<path d="M12850 15235 c-6 -8 -10 -19 -8 -24 1 -6 8 1 15 14 13 28 11 31 -7
10z"/>
<path d="M12190 15186 c0 -2 7 -7 16 -10 8 -3 12 -2 9 4 -6 10 -25 14 -25 6z"/>
<path d="M12170 15166 c0 -3 18 -24 40 -48 22 -24 40 -37 40 -30 0 6 -5 12
-11 12 -6 0 -9 7 -6 14 4 10 1 13 -9 9 -8 -3 -14 1 -14 9 0 7 -9 19 -20 26
-11 7 -20 10 -20 8z"/>
<path d="M12891 15074 c0 -11 3 -14 6 -6 3 7 2 16 -1 19 -3 4 -6 -2 -5 -13z"/>
<path d="M12897 15028 c-8 -29 -4 -32 11 -8 6 10 8 21 3 24 -5 3 -11 -4 -14
-16z"/>
<path d="M12355 15010 c3 -5 11 -10 16 -10 6 0 7 5 4 10 -3 6 -11 10 -16 10
-6 0 -7 -4 -4 -10z"/>
<path d="M12917 15004 c-4 -4 -7 -14 -7 -23 0 -11 3 -12 11 -4 6 6 10 16 7 23
-2 6 -7 8 -11 4z"/>
<path d="M12936 14973 c-6 -14 -5 -15 5 -6 7 7 10 15 7 18 -3 3 -9 -2 -12 -12z"/>
<path d="M12974 14890 c6 -36 17 -60 27 -60 5 0 9 -7 9 -15 0 -8 4 -15 10 -15
6 0 5 10 -2 25 -6 14 -15 25 -20 25 -4 0 -8 8 -8 18 0 9 -5 24 -10 32 -8 12
-9 9 -6 -10z"/>
<path d="M12636 14869 c8 -13 58 -17 69 -5 9 9 2 11 -31 11 -23 0 -40 -3 -38
-6z"/>
<path d="M25312 14860 c0 -14 2 -19 5 -12 2 6 2 18 0 25 -3 6 -5 1 -5 -13z"/>
<path d="M12618 14850 c18 -11 38 -20 45 -20 6 0 -5 9 -26 20 -48 26 -62 26
-19 0z"/>
<path d="M12690 14812 c0 -4 10 -13 23 -21 22 -14 22 -14 3 8 -20 22 -26 25
-26 13z"/>
<path d="M25243 14785 c-3 -9 -3 -19 1 -22 3 -4 6 1 6 10 0 8 6 18 13 20 9 4
9 6 -1 6 -7 1 -15 -6 -19 -14z"/>
<path d="M12770 14786 c0 -2 7 -7 16 -10 8 -3 12 -2 9 4 -6 10 -25 14 -25 6z"/>
<path d="M25291 14740 c0 -8 3 -21 8 -28 7 -11 9 -10 14 3 4 9 3 13 -2 10 -5
-3 -12 3 -14 12 -3 13 -5 14 -6 3z"/>
<path d="M13070 14724 c0 -7 9 -22 21 -35 16 -19 18 -20 10 -4 -17 34 -31 51
-31 39z"/>
<path d="M25332 14710 c0 -14 2 -19 5 -12 2 6 2 18 0 25 -3 6 -5 1 -5 -13z"/>
<path d="M12945 14710 c-3 -5 -1 -10 4 -10 6 0 11 5 11 10 0 6 -2 10 -4 10 -3
0 -8 -4 -11 -10z"/>
<path d="M25182 14708 c-7 -9 -6 -17 3 -25 10 -9 13 -7 11 13 -1 28 -1 28 -14
12z"/>
<path d="M13060 14681 c0 -10 29 -36 34 -30 1 2 -6 12 -16 22 -10 9 -18 13
-18 8z"/>
<path d="M13113 14647 c-4 -8 -15 -17 -23 -20 -12 -4 -11 -6 3 -6 10 -1 20 6
24 15 5 13 7 13 14 2 6 -9 9 -9 9 -1 0 18 -18 25 -27 10z"/>
<path d="M25161 14651 c-10 -7 -7 -9 12 -8 14 1 23 5 20 10 -6 9 -15 9 -32 -2z"/>
<path d="M13055 14640 c3 -5 8 -10 11 -10 2 0 4 5 4 10 0 6 -5 10 -11 10 -5 0
-7 -4 -4 -10z"/>
<path d="M13020 14630 c8 -5 20 -10 25 -10 6 0 3 5 -5 10 -8 5 -19 10 -25 10
-5 0 -3 -5 5 -10z"/>
<path d="M13150 14616 c0 -2 8 -10 18 -17 15 -13 16 -12 3 4 -13 16 -21 21
-21 13z"/>
<path d="M13140 14580 c0 -5 5 -10 11 -10 5 0 7 5 4 10 -3 6 -8 10 -11 10 -2
0 -4 -4 -4 -10z"/>
<path d="M13180 14569 c-13 -9 -13 -10 0 -6 8 2 24 -3 35 -12 20 -16 20 -16 1
7 -11 12 -20 22 -20 22 -1 0 -8 -5 -16 -11z"/>
<path d="M25007 14502 c-15 -16 -15 -18 1 -18 10 0 18 8 18 18 0 10 -1 18 -2
18 0 0 -8 -8 -17 -18z"/>
<path d="M13297 14469 c18 -18 35 -30 38 -27 3 3 -11 18 -32 33 l-38 28 32
-34z"/>
<path d="M24866 14333 c-6 -14 -5 -15 5 -6 7 7 10 15 7 18 -3 3 -9 -2 -12 -12z"/>
<path d="M24835 14290 c-10 -12 -13 -20 -7 -20 7 0 12 4 12 9 0 5 8 11 18 13
11 2 13 6 6 10 -6 4 -19 -1 -29 -12z"/>
<path d="M24851 14257 c-13 -21 -12 -21 5 -5 10 10 16 20 13 22 -3 3 -11 -5
-18 -17z"/>
<path d="M24753 14198 c-23 -30 -24 -41 -2 -21 12 12 20 25 17 28 -3 3 -10 0
-15 -7z"/>
<path d="M24575 13960 c-3 -5 1 -10 9 -10 9 0 16 5 16 10 0 6 -4 10 -9 10 -6
0 -13 -4 -16 -10z"/>
<path d="M24540 13941 c0 -6 4 -13 10 -16 6 -3 7 1 4 9 -7 18 -14 21 -14 7z"/>
<path d="M24515 13880 c-3 -5 -1 -10 4 -10 6 0 11 5 11 10 0 6 -2 10 -4 10 -3
0 -8 -4 -11 -10z"/>
<path d="M24420 13782 c0 -12 19 -26 26 -19 2 2 -2 10 -11 17 -9 8 -15 8 -15
2z"/>
<path d="M24460 13780 c0 -5 5 -10 10 -10 6 0 10 5 10 10 0 6 -4 10 -10 10 -5
0 -10 -4 -10 -10z"/>
<path d="M25236 13666 c6 -16 4 -18 -12 -12 -15 6 -17 5 -6 -5 9 -10 15 -10
24 -1 9 9 9 15 -1 25 -10 10 -11 8 -5 -7z"/>
<path d="M24306 13613 c-6 -14 -5 -15 5 -6 7 7 10 15 7 18 -3 3 -9 -2 -12 -12z"/>
<path d="M23960 13230 c0 -5 5 -10 10 -10 6 0 10 5 10 10 0 6 -4 10 -10 10 -5
0 -10 -4 -10 -10z"/>
<path d="M23906 13153 c-6 -14 -5 -15 5 -6 7 7 10 15 7 18 -3 3 -9 -2 -12 -12z"/>
<path d="M23788 13025 c-26 -35 -22 -42 7 -11 26 28 30 36 18 36 -5 0 -16 -11
-25 -25z"/>
<path d="M23470 12635 c0 -8 2 -15 4 -15 2 0 6 7 10 15 3 8 1 15 -4 15 -6 0
-10 -7 -10 -15z"/>
<path d="M23315 12390 c3 -5 8 -10 11 -10 2 0 4 5 4 10 0 6 -5 10 -11 10 -5 0
-7 -4 -4 -10z"/>
<path d="M22970 12009 c0 -5 -5 -7 -12 -3 -6 4 -8 3 -5 -4 4 -5 16 -8 27 -5
11 3 17 9 14 14 -7 12 -24 11 -24 -2z"/>
<path d="M22916 11951 c-4 -7 -5 -15 -2 -18 9 -9 19 4 14 18 -4 11 -6 11 -12
0z"/>
<path d="M22845 11880 c-3 -5 -1 -10 4 -10 6 0 11 5 11 10 0 6 -2 10 -4 10 -3
0 -8 -4 -11 -10z"/>
<path d="M22800 11741 c0 -6 5 -13 10 -16 6 -3 10 1 10 9 0 9 -4 16 -10 16 -5
0 -10 -4 -10 -9z"/>
<path d="M22715 11729 c-11 -17 1 -21 15 -4 8 9 8 15 2 15 -6 0 -14 -5 -17
-11z"/>
<path d="M22370 11290 c0 -5 5 -10 11 -10 5 0 7 5 4 10 -3 6 -8 10 -11 10 -2
0 -4 -4 -4 -10z"/>
<path d="M14568 11263 c7 -3 16 -2 19 1 4 3 -2 6 -13 5 -11 0 -14 -3 -6 -6z"/>
<path d="M14800 11259 c-232 -7 -345 -18 -538 -54 -46 -8 -87 -13 -92 -10 -4
3 -10 2 -12 -3 -1 -4 -40 -16 -85 -25 -81 -18 -124 -29 -298 -83 -113 -34
-116 -35 -137 -37 -10 -1 -18 -4 -18 -8 0 -3 -28 -16 -62 -29 -61 -22 -93 -35
-206 -86 -29 -13 -57 -24 -62 -24 -6 0 -10 -4 -10 -8 0 -4 -16 -14 -36 -21
-20 -7 -74 -35 -121 -62 -46 -27 -87 -49 -89 -49 -8 0 -164 -101 -241 -156
-263 -188 -489 -413 -638 -636 -67 -99 -163 -292 -190 -383 -43 -146 -45 -134
32 -212 452 -457 1371 -651 2278 -482 260 49 570 140 794 234 120 51 382 180
441 219 19 12 73 47 119 77 199 127 432 323 555 465 102 118 108 126 178 224
104 145 203 359 226 490 l10 54 -61 64 c-34 35 -61 68 -59 74 1 5 -2 7 -8 3
-9 -6 -97 58 -125 90 -6 7 -20 15 -33 19 -12 4 -19 12 -16 18 4 7 2 8 -4 4
-13 -8 -56 17 -46 26 3 3 -1 6 -8 5 -7 -1 -69 27 -138 60 -69 34 -137 65 -152
68 -16 4 -25 12 -21 18 3 6 1 7 -5 3 -6 -4 -44 4 -84 18 -87 29 -161 49 -288
77 -150 32 -247 46 -388 54 -46 2 -91 6 -100 8 -10 2 -127 0 -262 -4z"/>
<path d="M15356 11261 c-4 -5 3 -7 14 -4 23 6 26 13 6 13 -8 0 -17 -4 -20 -9z"/>
<path d="M14458 11253 c7 -3 16 -2 19 1 4 3 -2 6 -13 5 -11 0 -14 -3 -6 -6z"/>
<path d="M15430 11250 c-8 -5 -10 -10 -5 -10 6 0 17 5 25 10 8 5 11 10 5 10
-5 0 -17 -5 -25 -10z"/>
<path d="M15498 11253 c7 -3 16 -2 19 1 4 3 -2 6 -13 5 -11 0 -14 -3 -6 -6z"/>
<path d="M14378 11243 c7 -3 16 -2 19 1 4 3 -2 6 -13 5 -11 0 -14 -3 -6 -6z"/>
<path d="M14248 11223 c7 -3 16 -2 19 1 4 3 -2 6 -13 5 -11 0 -14 -3 -6 -6z"/>
<path d="M13996 11177 c3 -10 9 -15 12 -12 3 3 0 11 -7 18 -10 9 -11 8 -5 -6z"/>
<path d="M15693 11183 c9 -2 23 -2 30 0 6 3 -1 5 -18 5 -16 0 -22 -2 -12 -5z"/>
<path d="M15798 11183 c7 -3 16 -2 19 1 4 3 -2 6 -13 5 -11 0 -14 -3 -6 -6z"/>
<path d="M15808 11153 c7 -3 16 -2 19 1 4 3 -2 6 -13 5 -11 0 -14 -3 -6 -6z"/>
<path d="M22239 11143 c-13 -17 -13 -17 6 -3 11 8 22 16 24 17 2 2 0 3 -6 3
-6 0 -17 -8 -24 -17z"/>
<path d="M22290 11149 c0 -5 5 -7 10 -4 6 3 10 8 10 11 0 2 -4 4 -10 4 -5 0
-10 -5 -10 -11z"/>
<path d="M22200 11095 c-13 -14 -19 -25 -14 -25 11 0 47 40 41 46 -2 2 -14 -7
-27 -21z"/>
<path d="M13750 11100 c-8 -5 -10 -10 -5 -10 6 0 17 5 25 10 8 5 11 10 5 10
-5 0 -17 -5 -25 -10z"/>
<path d="M15988 11103 c7 -3 16 -2 19 1 4 3 -2 6 -13 5 -11 0 -14 -3 -6 -6z"/>
<path d="M13708 11083 c7 -3 16 -2 19 1 4 3 -2 6 -13 5 -11 0 -14 -3 -6 -6z"/>
<path d="M22210 11060 c0 -5 -7 -10 -17 -10 -9 0 -14 -3 -10 -6 8 -8 47 5 47
17 0 5 -4 9 -10 9 -5 0 -10 -4 -10 -10z"/>
<path d="M22040 10899 c0 -5 5 -7 10 -4 6 3 10 8 10 11 0 2 -4 4 -10 4 -5 0
-10 -5 -10 -11z"/>
<path d="M16392 10866 c7 -8 15 -12 17 -11 5 6 -10 25 -20 25 -5 0 -4 -6 3
-14z"/>
<path d="M21983 10828 c1 -15 6 -23 11 -18 4 4 4 16 -2 26 -9 16 -10 14 -9 -8z"/>
<path d="M26410 10696 c0 -2 7 -7 16 -10 8 -3 12 -2 9 4 -6 10 -25 14 -25 6z"/>
<path d="M21870 10680 c0 -5 5 -10 10 -10 6 0 10 5 10 10 0 6 -4 10 -10 10 -5
0 -10 -4 -10 -10z"/>
<path d="M21840 10672 c0 -7 -22 -37 -50 -67 -27 -30 -50 -61 -49 -68 0 -6 5
-2 11 11 8 16 17 21 32 17 17 -5 18 -4 6 4 -13 9 -12 13 8 26 24 18 57 73 48
83 -3 3 -6 0 -6 -6z"/>
<path d="M21823 10594 c-15 -16 -16 -24 -4 -24 8 0 24 30 19 35 -2 2 -9 -3
-15 -11z"/>
<path d="M26445 10540 c3 -5 8 -10 11 -10 2 0 4 5 4 10 0 6 -5 10 -11 10 -5 0
-7 -4 -4 -10z"/>
<path d="M26400 10530 c0 -5 4 -10 9 -10 6 0 13 5 16 10 3 6 -1 10 -9 10 -9 0
-16 -4 -16 -10z"/>
<path d="M26345 10520 c-8 -13 5 -13 25 0 13 8 13 10 -2 10 -9 0 -20 -4 -23
-10z"/>
<path d="M26430 10509 c0 -5 5 -7 10 -4 6 3 10 8 10 11 0 2 -4 4 -10 4 -5 0
-10 -5 -10 -11z"/>
<path d="M26385 10500 c4 -6 11 -8 16 -5 14 9 11 15 -7 15 -8 0 -12 -5 -9 -10z"/>
<path d="M26245 10489 c22 -4 49 -8 60 -7 16 0 15 2 -5 8 -14 4 -41 8 -60 8
l-35 0 40 -9z"/>
<path d="M26168 10483 c6 -2 18 -2 25 0 6 3 1 5 -13 5 -14 0 -19 -2 -12 -5z"/>
<path d="M26118 10473 c7 -3 16 -2 19 1 4 3 -2 6 -13 5 -11 0 -14 -3 -6 -6z"/>
<path d="M26213 10463 c9 -2 23 -2 30 0 6 3 -1 5 -18 5 -16 0 -22 -2 -12 -5z"/>
<path d="M25995 10450 c-3 -5 -21 -10 -40 -10 -19 0 -37 -4 -40 -10 -9 -15 36
-12 69 5 32 17 50 19 42 6 -6 -9 16 -21 37 -21 7 0 6 4 -3 10 -12 8 -12 10 5
11 17 1 16 2 -5 9 -36 11 -58 11 -65 0z"/>
<path d="M26158 10453 c7 -3 16 -2 19 1 4 3 -2 6 -13 5 -11 0 -14 -3 -6 -6z"/>
<path d="M26103 10443 c9 -2 23 -2 30 0 6 3 -1 5 -18 5 -16 0 -22 -2 -12 -5z"/>
<path d="M21645 10429 c-11 -16 -1 -19 13 -3 7 8 8 14 3 14 -5 0 -13 -5 -16
-11z"/>
<path d="M25838 10413 c12 -2 30 -2 40 0 9 3 -1 5 -23 4 -22 0 -30 -2 -17 -4z"/>
<path d="M25740 10400 c-24 -8 -24 -8 5 -9 17 0 37 4 45 9 12 8 11 10 -5 9
-11 -1 -31 -5 -45 -9z"/>
<path d="M25845 10393 c-33 -7 -77 -16 -97 -20 -21 -3 -38 -10 -38 -15 0 -8
34 -3 78 13 13 5 35 9 50 9 15 1 41 7 57 15 37 17 27 16 -50 -2z"/>
<path d="M25938 10403 c7 -3 16 -2 19 1 4 3 -2 6 -13 5 -11 0 -14 -3 -6 -6z"/>
<path d="M25680 10380 c0 -5 4 -10 9 -10 6 0 13 5 16 10 3 6 -1 10 -9 10 -9 0
-16 -4 -16 -10z"/>
<path d="M25648 10373 c7 -3 16 -2 19 1 4 3 -2 6 -13 5 -11 0 -14 -3 -6 -6z"/>
<path d="M25578 10363 c-56 -9 -241 -53 -200 -48 25 3 42 1 42 -5 0 -5 7 -10
15 -10 8 0 12 6 9 14 -4 11 8 16 53 21 32 4 76 13 98 20 40 13 35 16 -17 8z"/>
<path d="M25675 10350 c3 -5 8 -10 11 -10 2 0 4 5 4 10 0 6 -5 10 -11 10 -5 0
-7 -4 -4 -10z"/>
<path d="M25590 10334 c-30 -8 -36 -12 -20 -12 14 0 41 6 60 13 44 17 20 17
-40 -1z"/>
<path d="M25222 10290 c-18 -4 -36 -11 -40 -15 -7 -7 15 -4 103 14 l40 8 -35
1 c-19 0 -50 -4 -68 -8z"/>
<path d="M25348 10283 c12 -2 30 -2 40 0 9 3 -1 5 -23 4 -22 0 -30 -2 -17 -4z"/>
<path d="M21576 10261 c-4 -7 -5 -15 -2 -18 9 -9 19 4 14 18 -4 11 -6 11 -12
0z"/>
<path d="M25258 10263 c6 -2 18 -2 25 0 6 3 1 5 -13 5 -14 0 -19 -2 -12 -5z"/>
<path d="M24990 10240 c-47 -10 -77 -18 -68 -19 9 0 24 -4 34 -8 11 -4 15 -3
11 4 -4 7 26 16 86 26 50 8 76 15 57 15 -19 0 -73 -8 -120 -18z"/>
<path d="M24878 10213 c7 -3 16 -2 19 1 4 3 -2 6 -13 5 -11 0 -14 -3 -6 -6z"/>
<path d="M24800 10199 c-19 -5 -51 -11 -70 -15 -47 -8 -51 -14 -9 -13 19 0 59
8 89 19 57 19 51 25 -10 9z"/>
<path d="M24648 10163 c6 -2 18 -2 25 0 6 3 1 5 -13 5 -14 0 -19 -2 -12 -5z"/>
<path d="M24555 10150 c-16 -4 -23 -8 -14 -9 9 0 32 -3 50 -6 30 -4 31 -4 9 5
-21 8 -19 9 15 5 28 -3 35 -2 25 5 -17 11 -42 11 -85 0z"/>
<path d="M24465 10130 c-25 -11 1 -11 35 0 20 6 21 8 5 8 -11 0 -29 -3 -40 -8z"/>
<path d="M24414 10113 c15 -4 16 -7 5 -15 -12 -8 -12 -9 0 -6 25 7 24 28 -1
27 -19 -1 -20 -2 -4 -6z"/>
<path d="M21425 10100 c3 -5 8 -10 11 -10 2 0 4 5 4 10 0 6 -5 10 -11 10 -5 0
-7 -4 -4 -10z"/>
<path d="M24292 10094 c-41 -7 -77 -16 -80 -20 -4 -4 13 -3 38 1 25 4 60 9 78
10 33 3 50 11 41 19 -2 1 -37 -3 -77 -10z"/>
<path d="M24288 10063 c7 -3 16 -2 19 1 4 3 -2 6 -13 5 -11 0 -14 -3 -6 -6z"/>
<path d="M24118 10053 c6 -2 18 -2 25 0 6 3 1 5 -13 5 -14 0 -19 -2 -12 -5z"/>
<path d="M21327 10043 c-4 -3 -7 -11 -7 -17 0 -6 5 -5 12 2 6 6 9 14 7 17 -3
3 -9 2 -12 -2z"/>
<path d="M8542 9945 c0 -16 2 -22 5 -12 2 9 2 23 0 30 -3 6 -5 -1 -5 -18z"/>
<path d="M23545 9935 c-27 -7 -39 -13 -25 -13 14 0 48 6 75 13 28 7 39 13 25
13 -14 0 -47 -6 -75 -13z"/>
<path d="M21185 9869 c-4 -6 -5 -12 -2 -15 2 -3 7 2 10 11 7 17 1 20 -8 4z"/>
<path d="M25352 9860 c0 -14 2 -19 5 -12 2 6 2 18 0 25 -3 6 -5 1 -5 -13z"/>
<path d="M8542 9810 c0 -19 2 -27 5 -17 2 9 2 25 0 35 -3 9 -5 1 -5 -18z"/>
<path d="M21077 9722 c-10 -10 -14 -22 -10 -25 3 -4 13 2 21 14 18 26 10 35
-11 11z"/>
<path d="M8512 9690 c0 -14 2 -19 5 -12 2 6 2 18 0 25 -3 6 -5 1 -5 -13z"/>
<path d="M8551 9684 c0 -11 3 -14 6 -6 3 7 2 16 -1 19 -3 4 -6 -2 -5 -13z"/>
<path d="M21001 9639 c-7 -12 -10 -23 -8 -26 3 -3 11 5 17 17 15 28 8 35 -9 9z"/>
<path d="M20841 9464 c0 -11 3 -14 6 -6 3 7 2 16 -1 19 -3 4 -6 -2 -5 -13z"/>
<path d="M20791 9364 c0 -11 3 -14 6 -6 3 7 2 16 -1 19 -3 4 -6 -2 -5 -13z"/>
<path d="M20735 9339 c-11 -17 1 -21 15 -4 8 9 8 15 2 15 -6 0 -14 -5 -17 -11z"/>
<path d="M20678 9275 c-25 -33 -22 -46 2 -15 15 19 22 22 29 12 7 -11 9 -10
14 3 4 9 3 13 -3 10 -6 -3 -10 -1 -10 4 0 18 -14 12 -32 -14z"/>
<path d="M20677 9231 c-17 -18 -17 -19 2 -24 15 -3 18 -1 14 11 -5 11 -2 14
10 9 11 -4 14 -2 10 9 -7 18 -14 17 -36 -5z"/>
<path d="M20633 9220 c-7 -10 -10 -27 -6 -36 5 -13 2 -16 -10 -11 -12 4 -14 2
-10 -10 5 -12 2 -15 -10 -10 -12 4 -14 2 -10 -10 5 -12 2 -15 -10 -10 -9 3
-19 2 -22 -3 -3 -4 7 -7 22 -5 15 1 29 8 31 14 2 6 8 11 14 11 6 0 7 -7 4 -16
-3 -8 -2 -12 3 -9 5 3 8 23 6 45 -2 22 0 38 4 36 4 -3 8 4 8 15 2 24 1 24 -14
-1z"/>
<path d="M20544 9093 c5 -14 3 -23 -3 -23 -6 0 -11 5 -11 12 0 8 -6 6 -17 -5
-14 -14 -15 -19 -4 -29 10 -11 11 -10 6 5 -4 10 -2 17 4 17 6 0 11 -4 11 -9 0
-5 6 -11 13 -14 10 -4 13 3 12 24 -1 16 -5 32 -10 37 -4 4 -4 -3 -1 -15z"/>
<path d="M20417 8940 c-3 -11 -1 -20 4 -20 5 0 9 9 9 20 0 11 -2 20 -4 20 -2
0 -6 -9 -9 -20z"/>
<path d="M20441 8894 c0 -11 3 -14 6 -6 3 7 2 16 -1 19 -3 4 -6 -2 -5 -13z"/>
<path d="M6849 8763 c-13 -16 -12 -17 4 -4 16 13 21 21 13 21 -2 0 -10 -8 -17
-17z"/>
<path d="M20420 8775 c0 -5 5 -17 10 -25 5 -8 10 -10 10 -5 0 6 -5 17 -10 25
-5 8 -10 11 -10 5z"/>
<path d="M6770 8675 c-11 -13 -10 -14 4 -9 9 3 16 10 16 15 0 13 -6 11 -20 -6z"/>
<path d="M21990 8581 c0 -6 4 -13 10 -16 6 -3 7 1 4 9 -7 18 -14 21 -14 7z"/>
<path d="M21039 8553 c-13 -16 -12 -17 4 -4 16 13 21 21 13 21 -2 0 -10 -8
-17 -17z"/>
<path d="M9448 8213 c7 -3 16 -2 19 1 4 3 -2 6 -13 5 -11 0 -14 -3 -6 -6z"/>
<path d="M8795 8200 c3 -6 -2 -10 -12 -11 -16 0 -16 -1 2 -9 12 -5 14 -9 6 -9
-8 -1 -12 -3 -9 -6 3 -3 16 -1 29 4 21 9 22 10 4 11 -15 0 -17 2 -7 9 11 7 10
9 -3 14 -9 4 -13 3 -10 -3z"/>
<path d="M9423 8193 c9 -2 25 -2 35 0 9 3 1 5 -18 5 -19 0 -27 -2 -17 -5z"/>
<path d="M8668 8183 c7 -3 16 -2 19 1 4 3 -2 6 -13 5 -11 0 -14 -3 -6 -6z"/>
<path d="M19760 8176 c0 -9 5 -16 10 -16 6 0 10 4 10 9 0 6 -4 13 -10 16 -5 3
-10 -1 -10 -9z"/>
<path d="M9438 8173 c7 -3 16 -2 19 1 4 3 -2 6 -13 5 -11 0 -14 -3 -6 -6z"/>
<path d="M9608 8173 c6 -2 18 -2 25 0 6 3 1 5 -13 5 -14 0 -19 -2 -12 -5z"/>
<path d="M8528 8163 c7 -3 16 -2 19 1 4 3 -2 6 -13 5 -11 0 -14 -3 -6 -6z"/>
<path d="M6380 8155 c0 -5 5 -17 10 -25 5 -8 10 -10 10 -5 0 6 -5 17 -10 25
-5 8 -10 11 -10 5z"/>
<path d="M9737 8139 c4 -4 24 -10 43 -13 32 -6 33 -5 10 5 -29 14 -64 19 -53
8z"/>
<path d="M8397 8109 c7 -7 15 -10 18 -7 3 3 -2 9 -12 12 -14 6 -15 5 -6 -5z"/>
<path d="M8438 8093 c7 -3 16 -2 19 1 4 3 -2 6 -13 5 -11 0 -14 -3 -6 -6z"/>
<path d="M8192 8051 c-9 -5 -4 -8 16 -7 17 1 28 4 25 9 -6 9 -25 9 -41 -2z"/>
<path d="M9960 8050 c8 -5 20 -10 25 -10 6 0 3 5 -5 10 -8 5 -19 10 -25 10 -5
0 -3 -5 5 -10z"/>
<path d="M8062 7991 c-11 -7 -11 -9 0 -14 9 -3 15 1 15 9 0 8 -1 14 -1 14 -1
0 -7 -4 -14 -9z"/>
<path d="M10133 7954 c21 -14 41 -24 43 -21 6 5 -59 47 -72 47 -5 0 9 -12 29
-26z"/>
<path d="M7995 7951 c-3 -5 -2 -12 3 -15 5 -3 9 1 9 9 0 17 -3 19 -12 6z"/>
<path d="M8030 7950 c-8 -5 -10 -10 -5 -10 6 0 17 5 25 10 8 5 11 10 5 10 -5
0 -17 -5 -25 -10z"/>
<path d="M10098 7948 c10 -13 10 -17 0 -20 -7 -3 2 -5 20 -5 33 0 31 4 -13 29
-18 10 -18 9 -7 -4z"/>
<path d="M7955 7930 c-3 -6 1 -7 9 -4 18 7 21 14 7 14 -6 0 -13 -4 -16 -10z"/>
<path d="M7905 7900 c-3 -5 -1 -10 4 -10 6 0 11 5 11 10 0 6 -2 10 -4 10 -3 0
-8 -4 -11 -10z"/>
<path d="M10201 7907 c17 -14 79 -48 79 -44 0 7 -65 47 -75 47 -5 0 -6 -1 -4
-3z"/>
<path d="M7795 7820 c-3 -5 -1 -10 4 -10 6 0 11 5 11 10 0 6 -2 10 -4 10 -3 0
-8 -4 -11 -10z"/>
<path d="M10331 7786 c-7 -8 -8 -17 -3 -20 6 -3 15 1 21 8 7 8 8 17 3 20 -6 3
-15 -1 -21 -8z"/>
<path d="M10415 7720 c-4 -6 -1 -9 6 -8 7 2 13 -3 14 -11 0 -8 6 -15 13 -17 7
-1 8 0 2 3 -5 2 -8 8 -5 13 3 4 -2 13 -9 19 -10 9 -16 9 -21 1z"/>
<path d="M8381 7694 c0 -11 3 -14 6 -6 3 7 2 16 -1 19 -3 4 -6 -2 -5 -13z"/>
<path d="M10486 7624 c1 -20 6 -39 10 -42 4 -4 4 5 0 21 -4 16 -2 27 4 27 5 0
10 -3 10 -7 0 -5 10 -19 21 -33 l21 -25 -19 33 c-10 18 -25 40 -34 48 -15 13
-16 11 -13 -22z"/>
<path d="M10570 7541 c5 -11 15 -23 21 -27 6 -3 3 5 -6 20 -20 30 -30 35 -15
7z"/>
<path d="M6111 7394 c0 -11 3 -14 6 -6 3 7 2 16 -1 19 -3 4 -6 -2 -5 -13z"/>
<path d="M10685 7328 c4 -13 11 -27 16 -33 5 -5 4 5 -2 23 -12 36 -24 44 -14
10z"/>
<path d="M15326 7202 c-2 -4 -1 -14 4 -22 7 -11 9 -9 7 8 -1 24 -3 26 -11 14z"/>
<path d="M10761 7115 c1 -19 18 -51 18 -35 0 8 -4 22 -9 30 -5 8 -9 11 -9 5z"/>
<path d="M10741 7094 c0 -11 3 -14 6 -6 3 7 2 16 -1 19 -3 4 -6 -2 -5 -13z"/>
<path d="M18130 6835 c0 -8 4 -15 10 -15 5 0 7 7 4 15 -4 8 -8 15 -10 15 -2 0
-4 -7 -4 -15z"/>
<path d="M18141 6664 c0 -11 3 -14 6 -6 3 7 2 16 -1 19 -3 4 -6 -2 -5 -13z"/>
<path d="M6122 6525 c0 -16 2 -22 5 -12 2 9 2 23 0 30 -3 6 -5 -1 -5 -18z"/>
<path d="M11005 6410 c-3 -5 -1 -10 4 -10 6 0 11 5 11 10 0 6 -2 10 -4 10 -3
0 -8 -4 -11 -10z"/>
<path d="M10998 5893 c7 -3 16 -2 19 1 4 3 -2 6 -13 5 -11 0 -14 -3 -6 -6z"/>
<path d="M6376 5853 c-6 -14 -5 -15 5 -6 7 7 10 15 7 18 -3 3 -9 -2 -12 -12z"/>
<path d="M15868 5823 c7 -3 16 -2 19 1 4 3 -2 6 -13 5 -11 0 -14 -3 -6 -6z"/>
<path d="M11220 5810 c0 -5 5 -10 11 -10 5 0 7 5 4 10 -3 6 -8 10 -11 10 -2 0
-4 -4 -4 -10z"/>
<path d="M6415 5800 c3 -5 11 -10 16 -10 6 0 7 5 4 10 -3 6 -11 10 -16 10 -6
0 -7 -4 -4 -10z"/>
<path d="M11260 5800 c-9 -6 -10 -10 -3 -10 6 0 15 5 18 10 8 12 4 12 -15 0z"/>
<path d="M6434 5742 c4 -3 14 -7 22 -8 9 -1 13 0 10 4 -4 3 -14 7 -22 8 -9 1
-13 0 -10 -4z"/>
<path d="M15588 5733 c7 -3 16 -2 19 1 4 3 -2 6 -13 5 -11 0 -14 -3 -6 -6z"/>
<path d="M6450 5715 c0 0 11 -16 25 -35 14 -19 25 -29 25 -23 0 6 -7 16 -15
23 -9 7 -14 18 -11 25 2 6 -2 12 -10 12 -8 0 -14 -1 -14 -2z"/>
<path d="M11708 5663 c7 -3 16 -2 19 1 4 3 -2 6 -13 5 -11 0 -14 -3 -6 -6z"/>
<path d="M15318 5663 c7 -3 16 -2 19 1 4 3 -2 6 -13 5 -11 0 -14 -3 -6 -6z"/>
<path d="M14918 5578 c5 -5 16 -8 23 -6 8 3 3 7 -10 11 -17 4 -21 3 -13 -5z"/>
<path d="M14863 5563 c9 -2 23 -2 30 0 6 3 -1 5 -18 5 -16 0 -22 -2 -12 -5z"/>
<path d="M14783 5553 c9 -2 23 -2 30 0 6 3 -1 5 -18 5 -16 0 -22 -2 -12 -5z"/>
<path d="M7060 5532 c6 -13 14 -21 18 -18 3 4 -2 14 -12 24 -18 16 -18 16 -6
-6z"/>
<path d="M14557 5509 c7 -7 15 -10 18 -7 3 3 -2 9 -12 12 -14 6 -15 5 -6 -5z"/>
<path d="M14340 5506 c0 -2 7 -6 15 -10 8 -3 15 -1 15 4 0 6 -7 10 -15 10 -8
0 -15 -2 -15 -4z"/>
<path d="M12493 5493 c9 -2 23 -2 30 0 6 3 -1 5 -18 5 -16 0 -22 -2 -12 -5z"/>
<path d="M7090 5483 c0 -5 10 -18 23 -29 l22 -19 -20 25 c-11 14 -21 27 -22
29 -2 2 -3 0 -3 -6z"/>
<path d="M6660 5476 c0 -2 7 -9 15 -16 9 -7 15 -8 15 -2 0 5 -7 12 -15 16 -8
3 -15 4 -15 2z"/>
<path d="M12623 5473 c9 -2 23 -2 30 0 6 3 -1 5 -18 5 -16 0 -22 -2 -12 -5z"/>
<path d="M14328 5473 c7 -3 16 -2 19 1 4 3 -2 6 -13 5 -11 0 -14 -3 -6 -6z"/>
<path d="M6706 5418 c3 -5 10 -6 15 -3 13 9 11 12 -6 12 -8 0 -12 -4 -9 -9z"/>
<path d="M7130 5426 c0 -4 7 -14 15 -22 8 -9 15 -11 15 -6 0 5 -7 15 -15 22
-8 7 -15 9 -15 6z"/>
<path d="M6746 5386 c10 -8 21 -12 24 -10 5 6 -21 24 -34 24 -6 0 -1 -6 10
-14z"/>
<path d="M6778 5343 c6 -2 9 -10 6 -15 -4 -7 -2 -8 5 -4 13 9 5 26 -12 25 -9
0 -8 -2 1 -6z"/>
<path d="M7214 5309 c-3 -6 -2 -15 3 -20 5 -5 9 -1 9 11 0 23 -2 24 -12 9z"/>
<path d="M7294 5214 c-18 -14 -18 -15 4 -4 12 6 22 13 22 15 0 8 -5 6 -26 -11z"/>
<path d="M9980 5189 c-22 -18 -22 -19 -3 -10 12 6 25 16 28 21 9 15 3 12 -25
-11z"/>
<path d="M7364 5150 c0 -25 2 -27 18 -19 10 5 24 7 31 3 7 -5 6 -1 -2 10 -8 9
-22 21 -31 26 -13 7 -16 4 -16 -20z m26 0 c0 -5 -4 -10 -10 -10 -5 0 -10 5
-10 10 0 6 5 10 10 10 6 0 10 -4 10 -10z"/>
<path d="M7442 5110 c7 -11 17 -20 22 -20 5 0 1 9 -9 20 -10 11 -20 20 -22 20
-2 0 2 -9 9 -20z"/>
<path d="M7104 5105 c3 -20 26 -44 26 -27 0 7 -5 12 -11 12 -5 0 -8 4 -4 9 3
5 1 12 -4 15 -5 4 -8 -1 -7 -9z"/>
<path d="M7480 5080 c0 -5 5 -10 11 -10 5 0 7 5 4 10 -3 6 -8 10 -11 10 -2 0
-4 -4 -4 -10z"/>
<path d="M9741 5041 c-10 -6 -9 -10 3 -14 8 -3 18 -2 21 3 8 13 -9 20 -24 11z"/>
<path d="M9655 5014 c-19 -14 -19 -14 5 -12 17 2 24 -2 22 -10 -1 -8 2 -11 8
-7 6 3 7 11 4 17 -5 7 -2 9 8 6 8 -4 15 0 15 7 0 10 -5 11 -18 5 -10 -6 -19
-6 -21 -1 -2 5 -12 3 -23 -5z"/>
<path d="M7260 5010 c-9 -6 -10 -10 -3 -10 6 0 15 5 18 10 8 12 4 12 -15 0z"/>
<path d="M7617 4999 c7 -7 15 -10 18 -7 3 3 -2 9 -12 12 -14 6 -15 5 -6 -5z"/>
<path d="M9638 4973 c7 -3 16 -2 19 1 4 3 -2 6 -13 5 -11 0 -14 -3 -6 -6z"/>
<path d="M7694 4956 c11 -9 24 -16 30 -16 12 0 7 5 -24 19 -24 11 -24 11 -6
-3z"/>
<path d="M7405 4940 c-3 -5 -2 -10 4 -10 5 0 13 5 16 10 3 6 2 10 -4 10 -5 0
-13 -4 -16 -10z"/>
<path d="M7422 4921 c-11 -7 -11 -9 0 -14 9 -3 15 1 15 9 0 8 -1 14 -1 14 -1
0 -7 -4 -14 -9z"/>
<path d="M7730 4920 c-8 -5 -10 -10 -5 -10 6 0 17 5 25 10 8 5 11 10 5 10 -5
0 -17 -5 -25 -10z"/>
<path d="M9435 4911 c-3 -5 -2 -12 3 -15 5 -3 9 1 9 9 0 17 -3 19 -12 6z"/>
<path d="M7800 4900 c-9 -6 -10 -10 -3 -10 6 0 15 5 18 10 8 12 4 12 -15 0z"/>
<path d="M9365 4880 c-16 -7 -17 -9 -3 -9 9 -1 20 4 23 9 7 11 7 11 -20 0z"/>
<path d="M7594 4862 c2 -9 8 -17 15 -18 8 -2 8 -1 0 3 -8 4 -8 7 1 13 9 5 8 9
-3 13 -10 4 -14 0 -13 -11z"/>
<path d="M7884 4871 c7 -11 46 -35 46 -28 0 3 -12 12 -26 22 -15 9 -23 12 -20
6z"/>
<path d="M9265 4850 l-40 -19 32 2 c17 1 29 5 27 9 -2 3 8 11 23 16 16 6 21
10 13 10 -8 0 -33 -8 -55 -18z"/>
<path d="M7638 4853 c7 -3 16 -2 19 1 4 3 -2 6 -13 5 -11 0 -14 -3 -6 -6z"/>
<path d="M7657 4829 c7 -7 15 -10 18 -7 3 3 -2 9 -12 12 -14 6 -15 5 -6 -5z"/>
<path d="M7958 4833 c7 -3 16 -2 19 1 4 3 -2 6 -13 5 -11 0 -14 -3 -6 -6z"/>
<path d="M9163 4813 c9 -2 23 -2 30 0 6 3 -1 5 -18 5 -16 0 -22 -2 -12 -5z"/>
<path d="M9117 4799 c7 -7 15 -10 18 -7 3 3 -2 9 -12 12 -14 6 -15 5 -6 -5z"/>
<path d="M8988 4783 c13 -3 19 -9 16 -15 -4 -7 -2 -8 5 -4 17 11 3 26 -22 25
-22 -2 -22 -2 1 -6z"/>
<path d="M8950 4770 c8 -5 20 -10 25 -10 6 0 3 5 -5 10 -8 5 -19 10 -25 10 -5
0 -3 -5 5 -10z"/>
<path d="M8248 4763 c7 -3 16 -2 19 1 4 3 -2 6 -13 5 -11 0 -14 -3 -6 -6z"/>
<path d="M8398 4758 c5 -5 16 -8 23 -6 8 3 3 7 -10 11 -17 4 -21 3 -13 -5z"/>
<path d="M8780 4760 c14 -4 34 -8 45 -8 16 0 15 2 -5 8 -14 4 -34 8 -45 8 -16
0 -15 -2 5 -8z"/>
<path d="M7908 4753 c7 -3 16 -2 19 1 4 3 -2 6 -13 5 -11 0 -14 -3 -6 -6z"/>
<path d="M8198 4753 c7 -3 16 -2 19 1 4 3 -2 6 -13 5 -11 0 -14 -3 -6 -6z"/>
<path d="M8710 4750 c8 -5 22 -9 30 -9 10 0 8 3 -5 9 -27 12 -43 12 -25 0z"/>
<path d="M8928 4753 c7 -3 16 -2 19 1 4 3 -2 6 -13 5 -11 0 -14 -3 -6 -6z"/>
<path d="M8528 4743 c7 -3 16 -2 19 1 4 3 -2 6 -13 5 -11 0 -14 -3 -6 -6z"/>
<path d="M8218 4733 c7 -3 16 -2 19 1 4 3 -2 6 -13 5 -11 0 -14 -3 -6 -6z"/>
<path d="M8798 4733 c6 -2 18 -2 25 0 6 3 1 5 -13 5 -14 0 -19 -2 -12 -5z"/>
<path d="M8368 4703 c7 -3 16 -2 19 1 4 3 -2 6 -13 5 -11 0 -14 -3 -6 -6z"/>
<path d="M20507 3523 c-4 -3 -7 -16 -6 -27 0 -19 1 -19 10 3 10 24 8 36 -4 24z"/>
<path d="M5470 16449 c0 -5 5 -7 10 -4 6 3 10 8 10 11 0 2 -4 4 -10 4 -5 0
-10 -5 -10 -11z"/>
<path d="M5191 16094 c0 -11 3 -14 6 -6 3 7 2 16 -1 19 -3 4 -6 -2 -5 -13z"/>
<path d="M6255 15390 c-3 -5 -1 -10 4 -10 6 0 11 5 11 10 0 6 -2 10 -4 10 -3
0 -8 -4 -11 -10z"/>
<path d="M5840 15220 c0 -5 18 -10 40 -10 22 0 40 5 40 10 0 6 -18 10 -40 10
-22 0 -40 -4 -40 -10z"/>
<path d="M5936 14991 c-4 -7 -5 -15 -2 -18 9 -9 19 4 14 18 -4 11 -6 11 -12 0z"/>
<path d="M5911 14904 c0 -11 3 -14 6 -6 3 7 2 16 -1 19 -3 4 -6 -2 -5 -13z"/>
<path d="M5901 14828 c0 -9 -4 -25 -7 -35 -5 -17 -5 -17 6 0 6 10 9 25 7 35
-4 15 -5 15 -6 0z"/>
<path d="M5954 14546 c-3 -8 -4 -25 -1 -38 3 -18 5 -16 6 9 0 17 7 34 14 36 9
4 9 6 -1 6 -7 1 -15 -5 -18 -13z"/>
<path d="M5987 14543 c-4 -3 -7 -13 -7 -22 1 -13 3 -13 11 2 11 19 8 33 -4 20z"/>
<path d="M5973 14475 c0 -8 4 -15 9 -15 4 0 8 4 8 9 0 6 -4 12 -8 15 -5 3 -9
-1 -9 -9z"/>
<path d="M6120 14295 c19 -14 36 -25 39 -25 11 1 -50 50 -62 50 -6 0 4 -11 23
-25z"/>
<path d="M5190 14301 c12 -9 13 -11 1 -11 -8 0 -12 -2 -9 -5 3 -3 16 -1 29 4
13 5 19 10 12 10 -6 1 -20 4 -30 7 -15 5 -15 4 -3 -5z"/>
<path d="M4995 14280 c-13 -6 -2 -7 30 -3 28 3 52 7 54 9 9 8 -65 2 -84 -6z"/>
<path d="M6885 14280 c-3 -6 1 -7 9 -4 18 7 21 14 7 14 -6 0 -13 -4 -16 -10z"/>
<path d="M5100 14270 c-21 -7 -21 -8 -5 -9 11 0 27 4 35 9 18 11 5 11 -30 0z"/>
<path d="M4988 14253 c7 -3 16 -2 19 1 4 3 -2 6 -13 5 -11 0 -14 -3 -6 -6z"/>
<path d="M6239 14217 c4 -4 18 -3 32 2 23 9 22 9 -8 8 -18 -1 -28 -6 -24 -10z"/>
<path d="M6285 14200 c27 -12 43 -12 25 0 -8 5 -22 9 -30 9 -10 0 -8 -3 5 -9z"/>
<path d="M6335 14200 c3 -5 10 -10 16 -10 5 0 9 5 9 10 0 6 -7 10 -16 10 -8 0
-12 -4 -9 -10z"/>
<path d="M6730 14200 c-9 -6 -10 -10 -3 -10 6 0 15 5 18 10 8 12 4 12 -15 0z"/>
<path d="M6665 14190 c-7 -12 2 -12 30 0 19 8 19 9 -2 9 -12 1 -25 -3 -28 -9z"/>
<path d="M4924 10495 c-1 -61 0 -65 8 -32 4 22 4 53 0 70 -7 25 -8 17 -8 -38z"/>
<path d="M4952 10440 c0 -14 2 -19 5 -12 2 6 2 18 0 25 -3 6 -5 1 -5 -13z"/>
<path d="M4947 10387 c-11 -29 -9 -43 4 -30 6 6 9 19 7 29 -3 18 -4 18 -11 1z"/>
<path d="M5010 10155 c-7 -8 -16 -13 -20 -10 -5 3 -5 -5 -2 -17 5 -19 7 -20
10 -5 2 9 7 17 12 17 4 0 10 7 14 15 7 19 2 19 -14 0z"/>
<path d="M5004 10087 c-2 -7 2 -30 11 -52 l15 -40 -5 35 c-3 19 -6 43 -6 53 0
20 -8 22 -15 4z"/>
<path d="M5030 10069 c0 -5 5 -7 10 -4 6 3 10 8 10 11 0 2 -4 4 -10 4 -5 0
-10 -5 -10 -11z"/>
<path d="M5051 9955 c1 -19 18 -51 18 -35 0 8 -4 22 -9 30 -5 8 -9 11 -9 5z"/>
<path d="M5071 9864 c0 -11 3 -14 6 -6 3 7 2 16 -1 19 -3 4 -6 -2 -5 -13z"/>
<path d="M5091 9794 c0 -11 3 -14 6 -6 3 7 2 16 -1 19 -3 4 -6 -2 -5 -13z"/>
<path d="M14183 4240 c0 -47 2 -66 4 -42 2 23 2 61 0 85 -2 23 -4 4 -4 -43z"/>
<path d="M14495 4100 c11 -5 29 -9 40 -9 17 -1 17 1 5 9 -8 5 -26 9 -40 9 -23
0 -23 -1 -5 -9z"/>
<path d="M14490 4080 c8 -5 20 -10 25 -10 6 0 3 5 -5 10 -8 5 -19 10 -25 10
-5 0 -3 -5 5 -10z"/>
<path d="M14426 4061 c-3 -4 6 -6 19 -3 14 2 25 6 25 8 0 8 -39 4 -44 -5z"/>
<path d="M14358 4043 c7 -3 16 -2 19 1 4 3 -2 6 -13 5 -11 0 -14 -3 -6 -6z"/>
<path d="M14058 2873 c7 -3 16 -2 19 1 4 3 -2 6 -13 5 -11 0 -14 -3 -6 -6z"/>
<path d="M22830 6440 c0 -11 2 -20 4 -20 2 0 6 9 9 20 3 11 1 20 -4 20 -5 0
-9 -9 -9 -20z"/>
<path d="M22770 6303 c0 -4 5 -15 10 -23 8 -13 10 -13 10 2 0 9 -4 20 -10 23
-5 3 -10 3 -10 -2z"/>
<path d="M22791 6204 c0 -11 3 -14 6 -6 3 7 2 16 -1 19 -3 4 -6 -2 -5 -13z"/>
<path d="M22743 5736 c7 -14 13 -23 15 -21 7 6 -9 45 -18 45 -4 0 -3 -11 3
-24z"/>
<path d="M22771 5744 c0 -11 3 -14 6 -6 3 7 2 16 -1 19 -3 4 -6 -2 -5 -13z"/>
<path d="M22761 5686 c-7 -8 -8 -17 -3 -20 6 -3 13 1 16 10 9 23 2 28 -13 10z"/>
<path d="M22776 5655 c-3 -8 -1 -15 4 -15 6 0 10 7 10 15 0 8 -2 15 -4 15 -2
0 -6 -7 -10 -15z"/>
<path d="M22853 5484 c-6 -13 -7 -24 -3 -24 9 0 25 39 18 45 -2 2 -8 -7 -15
-21z"/>
<path d="M22866 5437 c3 -10 9 -15 12 -12 3 3 0 11 -7 18 -10 9 -11 8 -5 -6z"/>
<path d="M22910 5385 c6 -8 9 -18 6 -23 -3 -5 4 -18 15 -28 18 -16 19 -16 13
-1 -3 9 -10 17 -14 17 -4 0 -6 11 -5 25 2 17 -2 25 -12 25 -12 0 -13 -3 -3
-15z"/>
<path d="M22994 5269 c-2 -4 0 -10 6 -14 6 -4 7 -12 4 -18 -4 -7 -4 -9 1 -5 4
4 15 2 24 -4 13 -10 14 -10 4 2 -8 8 -9 19 -3 29 6 13 4 17 -12 17 -10 0 -21
-4 -24 -7z"/>
<path d="M24185 5250 c-3 -5 -1 -10 4 -10 6 0 11 5 11 10 0 6 -2 10 -4 10 -3
0 -8 -4 -11 -10z"/>
<path d="M24136 5164 c-4 -10 -1 -14 6 -12 15 5 23 28 10 28 -5 0 -13 -7 -16
-16z"/>
<path d="M23235 5110 c-13 -6 -15 -9 -5 -9 8 0 22 4 30 9 18 12 2 12 -25 0z"/>
<path d="M23995 4950 c-3 -5 -1 -10 4 -10 6 0 11 5 11 10 0 6 -2 10 -4 10 -3
0 -8 -4 -11 -10z"/>
<path d="M23590 4940 c8 -5 20 -10 25 -10 6 0 3 5 -5 10 -8 5 -19 10 -25 10
-5 0 -3 -5 5 -10z"/>
<path d="M23848 4943 c7 -3 16 -2 19 1 4 3 -2 6 -13 5 -11 0 -14 -3 -6 -6z"/>
<path d="M23848 4923 c7 -3 16 -2 19 1 4 3 -2 6 -13 5 -11 0 -14 -3 -6 -6z"/>
<path d="M24152 4765 c0 -16 2 -22 5 -12 2 9 2 23 0 30 -3 6 -5 -1 -5 -18z"/>
<path d="M24132 4740 c0 -14 2 -19 5 -12 2 6 2 18 0 25 -3 6 -5 1 -5 -13z"/>
<path d="M24140 4686 c0 -8 4 -17 9 -20 5 -4 7 3 4 14 -6 23 -13 26 -13 6z"/>
<path d="M24130 4654 c0 -5 7 -18 15 -28 8 -11 15 -16 15 -10 0 5 -7 18 -15
28 -8 11 -15 16 -15 10z"/>
<path d="M24203 4547 c-3 -5 -1 -13 5 -19 7 -7 13 -4 21 9 8 15 7 20 -5 20 -8
0 -17 -4 -21 -10z"/>
<path d="M25040 4379 c0 -5 5 -7 10 -4 6 3 10 8 10 11 0 2 -4 4 -10 4 -5 0
-10 -5 -10 -11z"/>
<path d="M24465 4370 c-3 -5 -1 -10 4 -10 6 0 11 5 11 10 0 6 -2 10 -4 10 -3
0 -8 -4 -11 -10z"/>
<path d="M24984 4355 c-25 -19 -14 -19 22 0 16 8 22 15 13 15 -8 0 -24 -7 -35
-15z"/>
<path d="M24428 4353 c7 -3 16 -2 19 1 4 3 -2 6 -13 5 -11 0 -14 -3 -6 -6z"/>
<path d="M24638 4313 c6 -2 18 -2 25 0 6 3 1 5 -13 5 -14 0 -19 -2 -12 -5z"/>
<path d="M24783 4313 c9 -2 23 -2 30 0 6 3 -1 5 -18 5 -16 0 -22 -2 -12 -5z"/>
<path d="M24830 4303 c-25 -9 -28 -12 -8 -8 14 3 34 8 44 12 12 5 15 3 9 -6
-6 -11 -3 -11 16 -1 13 7 25 14 27 15 10 8 -61 -1 -88 -12z"/>
<path d="M24758 4293 c7 -3 16 -2 19 1 4 3 -2 6 -13 5 -11 0 -14 -3 -6 -6z"/>
<path d="M24708 4273 c6 -2 18 -2 25 0 6 3 1 5 -13 5 -14 0 -19 -2 -12 -5z"/>
<path d="M15908 4433 c7 -3 16 -2 19 1 4 3 -2 6 -13 5 -11 0 -14 -3 -6 -6z"/>
<path d="M15848 4373 c7 -3 16 -2 19 1 4 3 -2 6 -13 5 -11 0 -14 -3 -6 -6z"/>
</g>
</svg>
