<svg version="1.2" xmlns="http://www.w3.org/2000/svg" viewBox="0 0 1000 1000" width="1000" height="1000">
	<title>5742775_2985395-ai</title>
	<style>
		.s0 { fill: #0064a5 } 
		.s1 { fill: none;stroke: #ffffff;stroke-width: 1.9 } 
		.s2 { fill: none;stroke: #ffffff;stroke-width: .5 } 
		.s3 { opacity: .5;fill: none;stroke: #fafafa;stroke-linecap: round;stroke-width: .4 } 
		.s4 { fill: none;stroke: #fafafa;stroke-linecap: round;stroke-width: .5 } 
		.s5 { fill: none;stroke: #fafafa;stroke-linecap: round;stroke-width: .4 } 
		.s6 { fill: none;stroke: #fafafa;stroke-linecap: round;stroke-width: 1 } 
		.s7 { fill: none;stroke: #fafafa;stroke-linecap: round;stroke-linejoin: round;stroke-width: 1 } 
		.s8 { fill: none;stroke: #fafafa;stroke-linecap: round;stroke-width: 2.1 } 
	</style>
	<g id="Background">
		<path id="&lt;Path&gt;" class="s0" d="m17 17h966v966h-966z"/>
	</g>
	<g id="Object">
		<g id="&lt;Group&gt;">
			<g id="&lt;Group&gt;">
				<g id="&lt;Group&gt;" style="opacity: .4">
					<path id="&lt;Path&gt;" class="s1" d="m978.8 978.8h-957.5v-957.5h957.5z"/>
					<path id="&lt;Path&gt;" class="s1" d="m967.1 967.1h-934.2v-934.2h934.2z"/>
				</g>
				<g id="&lt;Group&gt;" style="opacity: .4">
					<path id="&lt;Path&gt;" class="s2" d="m50 32.9v934.2"/>
					<path id="&lt;Path&gt;" class="s2" d="m70 32.9v934.2"/>
					<path id="&lt;Path&gt;" class="s2" d="m90 32.9v934.2"/>
					<path id="&lt;Path&gt;" class="s2" d="m110 32.9v934.2"/>
					<path id="&lt;Path&gt;" class="s2" d="m130 32.9v934.2"/>
					<path id="&lt;Path&gt;" class="s2" d="m150 32.9v934.2"/>
					<path id="&lt;Path&gt;" class="s2" d="m170 32.9v934.2"/>
					<path id="&lt;Path&gt;" class="s2" d="m190 32.9v934.2"/>
					<path id="&lt;Path&gt;" class="s2" d="m210 32.9v934.2"/>
					<path id="&lt;Path&gt;" class="s2" d="m230 32.9v934.2"/>
					<path id="&lt;Path&gt;" class="s2" d="m250 32.9v934.2"/>
					<path id="&lt;Path&gt;" class="s2" d="m270 32.9v934.2"/>
					<path id="&lt;Path&gt;" class="s2" d="m290 32.9v934.2"/>
					<path id="&lt;Path&gt;" class="s2" d="m310 32.9v934.2"/>
					<path id="&lt;Path&gt;" class="s2" d="m330 32.9v934.2"/>
					<path id="&lt;Path&gt;" class="s2" d="m350 32.9v934.2"/>
					<path id="&lt;Path&gt;" class="s2" d="m370 32.9v934.2"/>
					<path id="&lt;Path&gt;" class="s2" d="m390 32.9v934.2"/>
					<path id="&lt;Path&gt;" class="s2" d="m410 32.9v934.2"/>
					<path id="&lt;Path&gt;" class="s2" d="m430 32.9v934.2"/>
					<path id="&lt;Path&gt;" class="s2" d="m450 32.9v934.2"/>
					<path id="&lt;Path&gt;" class="s2" d="m470 32.9v934.2"/>
					<path id="&lt;Path&gt;" class="s2" d="m490 32.9v934.2"/>
					<path id="&lt;Path&gt;" class="s2" d="m510 32.9v934.2"/>
					<path id="&lt;Path&gt;" class="s2" d="m530 32.9v934.2"/>
					<path id="&lt;Path&gt;" class="s2" d="m550 32.9v934.2"/>
					<path id="&lt;Path&gt;" class="s2" d="m570 32.9v934.2"/>
					<path id="&lt;Path&gt;" class="s2" d="m590 32.9v934.2"/>
					<path id="&lt;Path&gt;" class="s2" d="m610 32.9v934.2"/>
					<path id="&lt;Path&gt;" class="s2" d="m630 32.9v934.2"/>
					<path id="&lt;Path&gt;" class="s2" d="m650 32.9v934.2"/>
					<path id="&lt;Path&gt;" class="s2" d="m670 32.9v934.2"/>
					<path id="&lt;Path&gt;" class="s2" d="m690 32.9v934.2"/>
					<path id="&lt;Path&gt;" class="s2" d="m710 32.9v934.2"/>
					<path id="&lt;Path&gt;" class="s2" d="m730 32.9v934.2"/>
					<path id="&lt;Path&gt;" class="s2" d="m750 32.9v934.2"/>
					<path id="&lt;Path&gt;" class="s2" d="m770 32.9v934.2"/>
					<path id="&lt;Path&gt;" class="s2" d="m790 32.9v934.2"/>
					<path id="&lt;Path&gt;" class="s2" d="m810 32.9v934.2"/>
					<path id="&lt;Path&gt;" class="s2" d="m830 32.9v934.2"/>
					<path id="&lt;Path&gt;" class="s2" d="m850 32.9v934.2"/>
					<path id="&lt;Path&gt;" class="s2" d="m870 32.9v934.2"/>
					<path id="&lt;Path&gt;" class="s2" d="m890 32.9v934.2"/>
					<path id="&lt;Path&gt;" class="s2" d="m910 32.9v934.2"/>
					<path id="&lt;Path&gt;" class="s2" d="m930 32.9v934.2"/>
					<path id="&lt;Path&gt;" class="s2" d="m950 32.9v934.2"/>
				</g>
				<g id="&lt;Group&gt;" style="opacity: .4">
					<path id="&lt;Path&gt;" class="s2" d="m967.1 50h-934.2"/>
					<path id="&lt;Path&gt;" class="s2" d="m967.1 70h-934.2"/>
					<path id="&lt;Path&gt;" class="s2" d="m967.1 90h-934.2"/>
					<path id="&lt;Path&gt;" class="s2" d="m967.1 110h-934.2"/>
					<path id="&lt;Path&gt;" class="s2" d="m967.1 130h-934.2"/>
					<path id="&lt;Path&gt;" class="s2" d="m967.1 150h-934.2"/>
					<path id="&lt;Path&gt;" class="s2" d="m967.1 170h-934.2"/>
					<path id="&lt;Path&gt;" class="s2" d="m967.1 190h-934.2"/>
					<path id="&lt;Path&gt;" class="s2" d="m967.1 210h-934.2"/>
					<path id="&lt;Path&gt;" class="s2" d="m967.1 230h-934.2"/>
					<path id="&lt;Path&gt;" class="s2" d="m967.1 250h-934.2"/>
					<path id="&lt;Path&gt;" class="s2" d="m967.1 270h-934.2"/>
					<path id="&lt;Path&gt;" class="s2" d="m967.1 290h-934.2"/>
					<path id="&lt;Path&gt;" class="s2" d="m967.1 310h-934.2"/>
					<path id="&lt;Path&gt;" class="s2" d="m967.1 330h-934.2"/>
					<path id="&lt;Path&gt;" class="s2" d="m967.1 350h-934.2"/>
					<path id="&lt;Path&gt;" class="s2" d="m967.1 370h-934.2"/>
					<path id="&lt;Path&gt;" class="s2" d="m967.1 390h-934.2"/>
					<path id="&lt;Path&gt;" class="s2" d="m967.1 410h-934.2"/>
					<path id="&lt;Path&gt;" class="s2" d="m967.1 430h-934.2"/>
					<path id="&lt;Path&gt;" class="s2" d="m967.1 450h-934.2"/>
					<path id="&lt;Path&gt;" class="s2" d="m967.1 470h-934.2"/>
					<path id="&lt;Path&gt;" class="s2" d="m967.1 490h-934.2"/>
					<path id="&lt;Path&gt;" class="s2" d="m967.1 510h-934.2"/>
					<path id="&lt;Path&gt;" class="s2" d="m967.1 530h-934.2"/>
					<path id="&lt;Path&gt;" class="s2" d="m967.1 550h-934.2"/>
					<path id="&lt;Path&gt;" class="s2" d="m967.1 570h-934.2"/>
					<path id="&lt;Path&gt;" class="s2" d="m967.1 590h-934.2"/>
					<path id="&lt;Path&gt;" class="s2" d="m967.1 610h-934.2"/>
					<path id="&lt;Path&gt;" class="s2" d="m967.1 630h-934.2"/>
					<path id="&lt;Path&gt;" class="s2" d="m967.1 650h-934.2"/>
					<path id="&lt;Path&gt;" class="s2" d="m967.1 670h-934.2"/>
					<path id="&lt;Path&gt;" class="s2" d="m967.1 690h-934.2"/>
					<path id="&lt;Path&gt;" class="s2" d="m967.1 710h-934.2"/>
					<path id="&lt;Path&gt;" class="s2" d="m967.1 730h-934.2"/>
					<path id="&lt;Path&gt;" class="s2" d="m967.1 750h-934.2"/>
					<path id="&lt;Path&gt;" class="s2" d="m967.1 770h-934.2"/>
					<path id="&lt;Path&gt;" class="s2" d="m967.1 790h-934.2"/>
					<path id="&lt;Path&gt;" class="s2" d="m967.1 810h-934.2"/>
					<path id="&lt;Path&gt;" class="s2" d="m967.1 830h-934.2"/>
					<path id="&lt;Path&gt;" class="s2" d="m967.1 850h-934.2"/>
					<path id="&lt;Path&gt;" class="s2" d="m967.1 870h-934.2"/>
					<path id="&lt;Path&gt;" class="s2" d="m967.1 890h-934.2"/>
					<path id="&lt;Path&gt;" class="s2" d="m967.1 910h-934.2"/>
					<path id="&lt;Path&gt;" class="s2" d="m967.1 930h-934.2"/>
					<path id="&lt;Path&gt;" class="s2" d="m967.1 950h-934.2"/>
				</g>
			</g>
			<g id="&lt;Group&gt;">
				<path id="&lt;Path&gt;" class="s3" d="m369.7 404.8l535.3-146.3"/>
				<g id="&lt;Group&gt;">
					<path id="&lt;Path&gt;" class="s4" d="m797.5 122.6l112.5 200.7"/>
					<path id="&lt;Path&gt;" class="s4" d="m910 552.4l-339.9 319.6"/>
					<path id="&lt;Path&gt;" class="s4" d="m910 539.7l-339.9 273.2"/>
					<path id="&lt;Path&gt;" class="s4" d="m92.6 375.9l256.7-95.9"/>
					<path id="&lt;Path&gt;" class="s4" d="m797.5 412.6l-476.8-132.6"/>
					<path id="&lt;Path&gt;" class="s4" d="m92.6 558.8l274.8 85.3"/>
					<path id="&lt;Path&gt;" class="s4" d="m613 812.9l-520.4-229.7"/>
					<path id="&lt;Path&gt;" class="s4" d="m613 872l-520.4-264.5"/>
					<path id="&lt;Path&gt;" class="s4" d="m593.3 379l316.7 65.4"/>
					<path id="&lt;Path&gt;" class="s4" d="m627.3 381.3l-534.7 71.9"/>
					<path id="&lt;Path&gt;" class="s4" d="m92.6 553.8l549.7 150"/>
					<path id="&lt;Path&gt;" class="s4" d="m600.9 703.8l309.1-181.7"/>
					<path id="&lt;Path&gt;" class="s4" d="m849.7 140l-757.1 271.7"/>
					<path id="&lt;Path&gt;" class="s4" d="m367.4 470.1l-274.8 5.6"/>
					<path id="&lt;Path&gt;" class="s4" d="m320.7 470.1l589.3 10.3"/>
					<path id="&lt;Path&gt;" class="s4" d="m334.6 644.1l575.4-145.6"/>
				</g>
				<g id="&lt;Group&gt;" style="opacity: .5">
					<path id="&lt;Path&gt;" class="s5" d="m797.5 116.4l112.5 200.7"/>
					<path id="&lt;Path&gt;" class="s5" d="m910 546.2l-339.9 319.5"/>
					<path id="&lt;Path&gt;" class="s5" d="m910 533.4l-339.9 273.2"/>
					<path id="&lt;Path&gt;" class="s5" d="m92.6 369.6l256.7-95.9"/>
					<path id="&lt;Path&gt;" class="s5" d="m797.5 406.4l-476.8-132.7"/>
					<path id="&lt;Path&gt;" class="s5" d="m92.6 552.5l274.8 85.3"/>
					<path id="&lt;Path&gt;" class="s5" d="m613 806.6l-520.4-229.7"/>
					<path id="&lt;Path&gt;" class="s5" d="m613 865.7l-520.4-264.4"/>
					<path id="&lt;Path&gt;" class="s5" d="m593.3 372.8l316.7 65.3"/>
					<path id="&lt;Path&gt;" class="s5" d="m627.3 375.1l-534.7 71.9"/>
					<path id="&lt;Path&gt;" class="s5" d="m92.6 547.5l549.7 150"/>
					<path id="&lt;Path&gt;" class="s5" d="m600.9 697.5l309.1-181.7"/>
					<path id="&lt;Path&gt;" class="s5" d="m849.7 133.8l-757.1 271.6"/>
					<path id="&lt;Path&gt;" class="s5" d="m367.4 463.9l-274.8 5.5"/>
					<path id="&lt;Path&gt;" class="s5" d="m320.7 463.9l589.3 10.3"/>
					<path id="&lt;Path&gt;" class="s5" d="m334.6 637.8l575.4-145.6"/>
				</g>
				<g id="&lt;Group&gt;" style="opacity: .5">
					<path id="&lt;Path&gt;" class="s5" d="m797.5 127.4l112.5 200.7"/>
					<path id="&lt;Path&gt;" class="s5" d="m910 557.2l-339.9 319.6"/>
					<path id="&lt;Path&gt;" class="s5" d="m910 544.5l-339.9 273.2"/>
					<path id="&lt;Path&gt;" class="s5" d="m92.6 380.7l256.7-95.9"/>
					<path id="&lt;Path&gt;" class="s5" d="m797.5 417.5l-476.8-132.7"/>
					<path id="&lt;Path&gt;" class="s5" d="m92.6 563.6l274.8 85.3"/>
					<path id="&lt;Path&gt;" class="s5" d="m613 817.7l-520.4-229.7"/>
					<path id="&lt;Path&gt;" class="s5" d="m613 876.8l-520.4-264.5"/>
					<path id="&lt;Path&gt;" class="s5" d="m593.3 383.8l316.7 65.4"/>
					<path id="&lt;Path&gt;" class="s5" d="m627.3 386.1l-534.7 72"/>
					<path id="&lt;Path&gt;" class="s5" d="m92.6 558.6l549.7 150"/>
					<path id="&lt;Path&gt;" class="s5" d="m600.9 708.6l309.1-181.7"/>
					<path id="&lt;Path&gt;" class="s5" d="m849.7 144.8l-757.1 271.7"/>
					<path id="&lt;Path&gt;" class="s5" d="m367.4 474.9l-274.8 5.6"/>
					<path id="&lt;Path&gt;" class="s5" d="m320.7 474.9l589.3 10.3"/>
					<path id="&lt;Path&gt;" class="s5" d="m334.6 648.9l575.4-145.6"/>
				</g>
				<g id="&lt;Group&gt;">
					<path id="&lt;Path&gt;" class="s4" d="m109.2 370.3v245.6l-7.6-3.8v-239z"/>
					<path id="&lt;Path&gt;" class="s4" d="m109.2 370.3l8.2 1.7v241.5l-8.2 2.4"/>
				</g>
				<path id="&lt;Path&gt;" class="s4" d="m352.8 639.5v-350.6l16.9 4.7v341.6z"/>
				<path id="&lt;Path&gt;" class="s4" d="m352.8 639.5l-16.2-5v-340.6l16.2-5z"/>
				<path id="&lt;Path&gt;" class="s4" d="m444.3 407.2v242.6l-12.2-3.4v-237.6z"/>
				<path id="&lt;Path&gt;" class="s4" d="m444.3 407.2l12.5 2v236.1l-12.5 4.5"/>
				<path id="&lt;Path&gt;" class="s4" d="m596.6 691.3v-305.8l17.4-2.2v312.8z"/>
				<path id="&lt;Path&gt;" class="s4" d="m614 383.3l15.8 3.2v300.3l-15.8 9.3z"/>
				<path id="&lt;Path&gt;" class="s6" d="m823.8 169.5v464l-9.5 8.9v-489.7z"/>
				<path id="&lt;Path&gt;" class="s6" d="m814.3 642.4l-14.7-2.1v-482.3l14.7-5.3z"/>
				<path id="&lt;Path&gt;" class="s4" d="m895.6 297.6v268.4l-5.6 5.3v-283.7z"/>
				<path id="&lt;Path&gt;" class="s4" d="m890 571.3h-8.9v-280.7l8.9-3"/>
				<g id="&lt;Group&gt;">
					<path id="&lt;Path&gt;" class="s4" d="m557.1 245v362.5l-12.7-2.3v-355.6z"/>
					<path id="&lt;Path&gt;" class="s4" d="m557.1 245l13 7v349.4l-13 6.1z"/>
				</g>
				<path id="&lt;Path&gt;" class="s4" d="m826.7 644.1l-734.1-101.1"/>
				<path id="&lt;Path&gt;" class="s6" d="m881.1 623.2l-121.7-12.6v-197.5"/>
				<path id="&lt;Path&gt;" class="s6" d="m744.2 207.2l-136.2 45.2"/>
				<path id="&lt;Path&gt;" class="s6" d="m616.6 243.2v140.1"/>
				<path id="&lt;Path&gt;" class="s6" d="m737.6 232.7l-93.2 29-27.8-12.1"/>
				<path id="&lt;Path&gt;" class="s6" d="m644.4 261.7v126.2"/>
				<path id="&lt;Path&gt;" class="s6" d="m654.3 391.6v-122.9l83.3-25.5"/>
				<path id="&lt;Path&gt;" class="s6" d="m737.6 249.6l-76.4 23.2-6.9-4.1"/>
				<path id="&lt;Path&gt;" class="s6" d="m661.2 272.8v120.2"/>
				<path id="&lt;Path&gt;" class="s6" d="m705.1 253.1v149"/>
				<path id="&lt;Path&gt;" class="s7" d="m711.5 403.4v-152.2l5.2 4.7v148.6"/>
				<path id="&lt;Path&gt;" class="s6" d="m872.7 301.3v100.3l-36.2-18.3v-129.6z"/>
				<path id="&lt;Path&gt;" class="s6" d="m872.7 301.3h-10.3l-25.9-27.1"/>
				<path id="&lt;Path&gt;" class="s6" d="m862.4 301.3v94.8"/>
				<path id="&lt;Path&gt;" class="s6" d="m836.5 280l22.5 23.6v91"/>
				<path id="&lt;Path&gt;" class="s6" d="m859 303.6h-2.8l-19.7-18.8"/>
				<path id="&lt;Path&gt;" class="s6" d="m856.2 303.6v89.6"/>
				<path id="&lt;Path&gt;" class="s6" d=""/>
				<path id="&lt;Path&gt;" class="s6" d="m495.7 435.1v209l-29.2 11.7v-217.6l113.9-11.9v261.3"/>
				<path id="&lt;Path&gt;" class="s6" d="m495.7 644.1l84.7 21.8"/>
				<path id="&lt;Path&gt;" class="s6" d="m533.8 511.3h-28.6v-53l28.6-2.3z"/>
				<path id="&lt;Path&gt;" class="s6" d="m575.1 453.2v58.1h-35.1v-55.3z"/>
				<path id="&lt;Path&gt;" class="s6" d="m505.2 518.2h28.6v51l-28.6-1.9z"/>
				<path id="&lt;Path&gt;" class="s6" d="m575.1 519v52.3l-35.1-2.1v-51z"/>
				<path id="&lt;Path&gt;" class="s6" d="m747 438.7v38.9l-99.4-1.8v-49.5z"/>
				<path id="&lt;Path&gt;" class="s6" d="m735.9 477.4v-40.1"/>
				<path id="&lt;Path&gt;" class="s6" d="m693.9 432.1v44.6"/>
				<path id="&lt;Path&gt;" class="s6" d="m702 433.1v43.6"/>
				<path id="&lt;Path&gt;" class="s6" d="m688 432.1v44.5"/>
				<path id="&lt;Path&gt;" class="s6" d="m872.7 454.9v24.9l-36.2-0.7v-29.3z"/>
				<path id="&lt;Path&gt;" class="s6" d="m867.1 454.1v25.6"/>
				<path id="&lt;Path&gt;" class="s6" d="m854.6 452.3v27.2"/>
				<path id="&lt;Path&gt;" class="s6" d="m849.7 451.9v27.5"/>
				<path id="&lt;Path&gt;" class="s6" d="m846.6 451.2v28.1"/>
				<path id="&lt;Path&gt;" class="s8" d="m380.7 632.4v-217.9l233.3-31.2v312.8l145.4-85.5 54.9 5.7-229 184.3-483.7-213.4v-219.8"/>
				<path id="&lt;Path&gt;" class="s8" d="m814.3 140v284.6"/>
				<path id="&lt;Path&gt;" class="s8" d="m466.5 655.8l-85.8-23.4-27.9 7.1v-168.7h-15.7v-186.2"/>
				<path id="&lt;Path&gt;" class="s8" d="m177.4 585.1l-60 8.5v-117.9l58.8-1.7 1.2 111.1 175.4 54.4"/>
				<path id="&lt;Path&gt;" class="s8" d="m585.2 800.6v57.3l-483.6-245.8v-24.9"/>
				<path id="&lt;Path&gt;" class="s6" d="m349.3 820.4c0 10.9-23.1 19.8-51.6 19.8-28.5 0-51.6-8.9-51.6-19.8 0-10.9 23.1-19.8 51.6-19.8 28.5 0 51.6 8.9 51.6 19.8z"/>
				<path id="&lt;Path&gt;" class="s6" d="m260.9 759.9c0 5.5-11.6 9.9-25.8 9.9-14.3 0-25.8-4.4-25.8-9.9 0-5.5 11.5-9.9 25.8-9.9 14.2 0 25.8 4.4 25.8 9.9z"/>
				<path id="&lt;Path&gt;" class="s6" d="m862.3 712.2c0 5.5-11.5 9.9-25.8 9.9-14.2 0-25.8-4.4-25.8-9.9 0-5.4 11.6-9.9 25.8-9.9 14.3 0 25.8 4.5 25.8 9.9z"/>
				<path id="&lt;Path&gt;" class="s6" d="m815.8 759.9c0 5.5-11.5 9.9-25.8 9.9-14.3 0-25.8-4.4-25.8-9.9 0-5.5 11.5-9.9 25.8-9.9 14.3 0 25.8 4.4 25.8 9.9z"/>
				<path id="&lt;Path&gt;" class="s6" d="m761.7 820.4c0 5.5-11.5 9.9-25.8 9.9-14.3 0-25.8-4.4-25.8-9.9 0-5.4 11.5-9.9 25.8-9.9 14.3 0 25.8 4.5 25.8 9.9z"/>
				<path id="&lt;Path&gt;" class="s8" d="m101.6 373.1l235.5-88.5 207.3 57.6v-92.6l269.9-96.9 81.3 144.9v268.4l-310.4 291.9"/>
				<path id="&lt;Path&gt;" class="s8" d="m544.4 342.2v50.3"/>
				<path id="&lt;Path&gt;" class="s8" d="m814.3 616.3v-191.7"/>
				<path id="&lt;Path&gt;" class="s8" d="m614 383.3l144.6 29.8 0.8 197.5"/>
				<path id="&lt;Path&gt;" class="s6" d="m528 366.4v45.3l-145.4-28.4v-54.3z"/>
				<path id="&lt;Path&gt;" class="s6" d="m516.8 409.5l-0.6-40.2 11.8-2.9"/>
				<path id="&lt;Path&gt;" class="s6" d="m516.2 369.3l-133.6-33.2"/>
				<path id="&lt;Path&gt;" class="s6" d="m382.6 340l129.6 31.9v36.7"/>
				<path id="&lt;Path&gt;" class="s6" d="m509 408v-36.1h3.2"/>
				<path id="&lt;Path&gt;" class="s6" d="m482 364.4v38.3"/>
				<path id="&lt;Path&gt;" class="s6" d="m477.5 363.3v38.2"/>
				<path id="&lt;Path&gt;" class="s6" d="m474.4 363.3v38.1"/>
				<path id="&lt;Path&gt;" class="s6" d="m432.1 352.7v40.2"/>
				<path id="&lt;Path&gt;" class="s6" d="m425.9 391.7v-41.1"/>
				<path id="&lt;Path&gt;" class="s6" d="m422.2 349.7v41.2"/>
				<path id="&lt;Path&gt;" class="s8" d="m337.1 470.8l-160.9 3.2"/>
				<path id="&lt;Path&gt;" class="s6" d="m294.4 339.3v86.8"/>
				<path id="&lt;Path&gt;" class="s6" d="m230 362.4v72.4"/>
				<path id="&lt;Path&gt;" class="s6" d="m190.9 376.4v63.6"/>
				<path id="&lt;Path&gt;" class="s6" d="m139 395v53.6"/>
				<path id="&lt;Path&gt;" class="s6" d="m139 395l7.7 1.1v49.9"/>
				<path id="&lt;Path&gt;" class="s6" d="m146.7 396.1l44.2-14.2"/>
				<path id="&lt;Path&gt;" class="s6" d="m230 362.4l10.5 1.2v69.5"/>
				<path id="&lt;Path&gt;" class="s6" d="m240.5 363.6l53.9-18.5"/>
				<path id="&lt;Path&gt;" class="s6" d="m243.8 432.9v-67.2l50.6-17"/>
				<path id="&lt;Path&gt;" class="s6" d="m272.6 356v73"/>
				<path id="&lt;Path&gt;" class="s6" d="m276.7 428.5v-73.9l3 1.4v72.1"/>
				<path id="&lt;Path&gt;" class="s6" d="m243.8 365.7l2.3 0.9v66"/>
				<path id="&lt;Path&gt;" class="s6" d="m246.1 366.6l26.5-8.5"/>
				<path id="&lt;Path&gt;" class="s6" d="m279.7 356l14.7-5"/>
				<path id="&lt;Path&gt;" class="s6" d="m149.4 445.6v-47.8l41.5-12.4"/>
				<path id="&lt;Path&gt;" class="s6" d="m170.2 391.6v51.2"/>
				<path id="&lt;Path&gt;" class="s6" d="m172.9 442.4v-51.7l2 0.9v50.6"/>
				<path id="&lt;Path&gt;" class="s6" d="m149.4 397.8l1.9 0.6v46.9"/>
				<path id="&lt;Path&gt;" class="s6" d="m151.3 398.4l18.9-5.5"/>
				<path id="&lt;Path&gt;" class="s6" d="m174.9 391.6l16-4.8"/>
				<path id="&lt;Path&gt;" class="s5" d="m109.2 303.6v388.1"/>
				<path id="&lt;Path&gt;" class="s5" d="m336.6 231v579"/>
				<path id="&lt;Path&gt;" class="s5" d="m352.8 237.4v589.4"/>
				<path id="&lt;Path&gt;" class="s5" d="m543.7 225.2v657.1"/>
				<path id="&lt;Path&gt;" class="s5" d="m814.3 109.5v593.3"/>
				<path id="&lt;Path&gt;" class="s5" d="m444.3 185.1v493.4"/>
				<path id="&lt;Path&gt;" class="s5" d="m895.6 242.1v382.7"/>
				<path id="&lt;Path&gt;" class="s5" d="m614.6 337.2v382.6"/>
				<path id="&lt;Path&gt;" class="s5" d="m92.6 348.7l754-299.6"/>
				<path id="&lt;Path&gt;" class="s5" d="m910 287.6l-137.1-238.5"/>
				<path id="&lt;Path&gt;" class="s6" d="m737.6 203.5v204.8"/>
				<path id="&lt;Path&gt;" class="s6" d="m192.3 485.2h144.3v91.7l-144.3-20.1z"/>
				<path id="&lt;Path&gt;" class="s6" d="m201.5 485.2v70.1l-9.2 1.5"/>
				<path id="&lt;Path&gt;" class="s6" d="m201.5 555.3l135.1 17.8"/>
				<path id="&lt;Path&gt;" class="s6" d="m336.6 567.8l-130.7-15.3v-67.3"/>
				<path id="&lt;Path&gt;" class="s6" d="m264.4 485.2v74.2"/>
				<path id="&lt;Path&gt;" class="s6" d="m275.3 560.2v-75"/>
				<path id="&lt;Path&gt;" class="s6" d="m271.2 485.2v75"/>
				<path id="&lt;Path&gt;" class="s6" d="m209.2 485.2v67.3h-3.3"/>
			</g>
		</g>
	</g>
	<g id="Designed by Freepik">
	</g>
</svg>